# Original Magenheim Earth asset; meters; Y up
mtllib fracturing-block.mtl
usemtl fracturing-block
v 0.360000 0.000000 0.000000
v 0.360000 0.640000 0.000000
v 0.291246 0.000000 0.211603
v 0.291246 0.000000 0.211603
v 0.360000 0.640000 0.000000
v 0.291246 0.640000 0.211603
v 0.000000 0.000000 0.000000
v 0.360000 0.000000 0.000000
v 0.291246 0.000000 0.211603
v 0.000000 0.640000 0.000000
v 0.291246 0.640000 0.211603
v 0.360000 0.640000 0.000000
v 0.291246 0.000000 0.211603
v 0.291246 0.640000 0.211603
v 0.111246 0.000000 0.342380
v 0.111246 0.000000 0.342380
v 0.291246 0.640000 0.211603
v 0.111246 0.640000 0.342380
v 0.000000 0.000000 0.000000
v 0.291246 0.000000 0.211603
v 0.111246 0.000000 0.342380
v 0.000000 0.640000 0.000000
v 0.111246 0.640000 0.342380
v 0.291246 0.640000 0.211603
v 0.111246 0.000000 0.342380
v 0.111246 0.640000 0.342380
v -0.111246 0.000000 0.342380
v -0.111246 0.000000 0.342380
v 0.111246 0.640000 0.342380
v -0.111246 0.640000 0.342380
v 0.000000 0.000000 0.000000
v 0.111246 0.000000 0.342380
v -0.111246 0.000000 0.342380
v 0.000000 0.640000 0.000000
v -0.111246 0.640000 0.342380
v 0.111246 0.640000 0.342380
v -0.111246 0.000000 0.342380
v -0.111246 0.640000 0.342380
v -0.291246 0.000000 0.211603
v -0.291246 0.000000 0.211603
v -0.111246 0.640000 0.342380
v -0.291246 0.640000 0.211603
v 0.000000 0.000000 0.000000
v -0.111246 0.000000 0.342380
v -0.291246 0.000000 0.211603
v 0.000000 0.640000 0.000000
v -0.291246 0.640000 0.211603
v -0.111246 0.640000 0.342380
v -0.291246 0.000000 0.211603
v -0.291246 0.640000 0.211603
v -0.360000 0.000000 0.000000
v -0.360000 0.000000 0.000000
v -0.291246 0.640000 0.211603
v -0.360000 0.640000 0.000000
v 0.000000 0.000000 0.000000
v -0.291246 0.000000 0.211603
v -0.360000 0.000000 0.000000
v 0.000000 0.640000 0.000000
v -0.360000 0.640000 0.000000
v -0.291246 0.640000 0.211603
v -0.360000 0.000000 0.000000
v -0.360000 0.640000 0.000000
v -0.291246 0.000000 -0.211603
v -0.291246 0.000000 -0.211603
v -0.360000 0.640000 0.000000
v -0.291246 0.640000 -0.211603
v 0.000000 0.000000 0.000000
v -0.360000 0.000000 0.000000
v -0.291246 0.000000 -0.211603
v 0.000000 0.640000 0.000000
v -0.291246 0.640000 -0.211603
v -0.360000 0.640000 0.000000
v -0.291246 0.000000 -0.211603
v -0.291246 0.640000 -0.211603
v -0.111246 0.000000 -0.342380
v -0.111246 0.000000 -0.342380
v -0.291246 0.640000 -0.211603
v -0.111246 0.640000 -0.342380
v 0.000000 0.000000 0.000000
v -0.291246 0.000000 -0.211603
v -0.111246 0.000000 -0.342380
v 0.000000 0.640000 0.000000
v -0.111246 0.640000 -0.342380
v -0.291246 0.640000 -0.211603
v -0.111246 0.000000 -0.342380
v -0.111246 0.640000 -0.342380
v 0.111246 0.000000 -0.342380
v 0.111246 0.000000 -0.342380
v -0.111246 0.640000 -0.342380
v 0.111246 0.640000 -0.342380
v 0.000000 0.000000 0.000000
v -0.111246 0.000000 -0.342380
v 0.111246 0.000000 -0.342380
v 0.000000 0.640000 0.000000
v 0.111246 0.640000 -0.342380
v -0.111246 0.640000 -0.342380
v 0.111246 0.000000 -0.342380
v 0.111246 0.640000 -0.342380
v 0.291246 0.000000 -0.211603
v 0.291246 0.000000 -0.211603
v 0.111246 0.640000 -0.342380
v 0.291246 0.640000 -0.211603
v 0.000000 0.000000 0.000000
v 0.111246 0.000000 -0.342380
v 0.291246 0.000000 -0.211603
v 0.000000 0.640000 0.000000
v 0.291246 0.640000 -0.211603
v 0.111246 0.640000 -0.342380
v 0.291246 0.000000 -0.211603
v 0.291246 0.640000 -0.211603
v 0.360000 0.000000 0.000000
v 0.360000 0.000000 0.000000
v 0.291246 0.640000 -0.211603
v 0.360000 0.640000 0.000000
v 0.000000 0.000000 0.000000
v 0.291246 0.000000 -0.211603
v 0.360000 0.000000 0.000000
v 0.000000 0.640000 0.000000
v 0.360000 0.640000 0.000000
v 0.291246 0.640000 -0.211603
v 0.375000 0.042500 0.000000
v 0.375000 0.117500 0.000000
v 0.303381 0.042500 0.220419
v 0.303381 0.042500 0.220419
v 0.375000 0.117500 0.000000
v 0.303381 0.117500 0.220419
v 0.000000 0.042500 0.000000
v 0.375000 0.042500 0.000000
v 0.303381 0.042500 0.220419
v 0.000000 0.117500 0.000000
v 0.303381 0.117500 0.220419
v 0.375000 0.117500 0.000000
v 0.303381 0.042500 0.220419
v 0.303381 0.117500 0.220419
v 0.115881 0.042500 0.356646
v 0.115881 0.042500 0.356646
v 0.303381 0.117500 0.220419
v 0.115881 0.117500 0.356646
v 0.000000 0.042500 0.000000
v 0.303381 0.042500 0.220419
v 0.115881 0.042500 0.356646
v 0.000000 0.117500 0.000000
v 0.115881 0.117500 0.356646
v 0.303381 0.117500 0.220419
v 0.115881 0.042500 0.356646
v 0.115881 0.117500 0.356646
v -0.115881 0.042500 0.356646
v -0.115881 0.042500 0.356646
v 0.115881 0.117500 0.356646
v -0.115881 0.117500 0.356646
v 0.000000 0.042500 0.000000
v 0.115881 0.042500 0.356646
v -0.115881 0.042500 0.356646
v 0.000000 0.117500 0.000000
v -0.115881 0.117500 0.356646
v 0.115881 0.117500 0.356646
v -0.115881 0.042500 0.356646
v -0.115881 0.117500 0.356646
v -0.303381 0.042500 0.220419
v -0.303381 0.042500 0.220419
v -0.115881 0.117500 0.356646
v -0.303381 0.117500 0.220419
v 0.000000 0.042500 0.000000
v -0.115881 0.042500 0.356646
v -0.303381 0.042500 0.220419
v 0.000000 0.117500 0.000000
v -0.303381 0.117500 0.220419
v -0.115881 0.117500 0.356646
v -0.303381 0.042500 0.220419
v -0.303381 0.117500 0.220419
v -0.375000 0.042500 0.000000
v -0.375000 0.042500 0.000000
v -0.303381 0.117500 0.220419
v -0.375000 0.117500 0.000000
v 0.000000 0.042500 0.000000
v -0.303381 0.042500 0.220419
v -0.375000 0.042500 0.000000
v 0.000000 0.117500 0.000000
v -0.375000 0.117500 0.000000
v -0.303381 0.117500 0.220419
v -0.375000 0.042500 0.000000
v -0.375000 0.117500 0.000000
v -0.303381 0.042500 -0.220419
v -0.303381 0.042500 -0.220419
v -0.375000 0.117500 0.000000
v -0.303381 0.117500 -0.220419
v 0.000000 0.042500 0.000000
v -0.375000 0.042500 0.000000
v -0.303381 0.042500 -0.220419
v 0.000000 0.117500 0.000000
v -0.303381 0.117500 -0.220419
v -0.375000 0.117500 0.000000
v -0.303381 0.042500 -0.220419
v -0.303381 0.117500 -0.220419
v -0.115881 0.042500 -0.356646
v -0.115881 0.042500 -0.356646
v -0.303381 0.117500 -0.220419
v -0.115881 0.117500 -0.356646
v 0.000000 0.042500 0.000000
v -0.303381 0.042500 -0.220419
v -0.115881 0.042500 -0.356646
v 0.000000 0.117500 0.000000
v -0.115881 0.117500 -0.356646
v -0.303381 0.117500 -0.220419
v -0.115881 0.042500 -0.356646
v -0.115881 0.117500 -0.356646
v 0.115881 0.042500 -0.356646
v 0.115881 0.042500 -0.356646
v -0.115881 0.117500 -0.356646
v 0.115881 0.117500 -0.356646
v 0.000000 0.042500 0.000000
v -0.115881 0.042500 -0.356646
v 0.115881 0.042500 -0.356646
v 0.000000 0.117500 0.000000
v 0.115881 0.117500 -0.356646
v -0.115881 0.117500 -0.356646
v 0.115881 0.042500 -0.356646
v 0.115881 0.117500 -0.356646
v 0.303381 0.042500 -0.220419
v 0.303381 0.042500 -0.220419
v 0.115881 0.117500 -0.356646
v 0.303381 0.117500 -0.220419
v 0.000000 0.042500 0.000000
v 0.115881 0.042500 -0.356646
v 0.303381 0.042500 -0.220419
v 0.000000 0.117500 0.000000
v 0.303381 0.117500 -0.220419
v 0.115881 0.117500 -0.356646
v 0.303381 0.042500 -0.220419
v 0.303381 0.117500 -0.220419
v 0.375000 0.042500 0.000000
v 0.375000 0.042500 0.000000
v 0.303381 0.117500 -0.220419
v 0.375000 0.117500 0.000000
v 0.000000 0.042500 0.000000
v 0.303381 0.042500 -0.220419
v 0.375000 0.042500 0.000000
v 0.000000 0.117500 0.000000
v 0.375000 0.117500 0.000000
v 0.303381 0.117500 -0.220419
v 0.375000 0.522500 0.000000
v 0.375000 0.577500 0.000000
v 0.303381 0.522500 0.220419
v 0.303381 0.522500 0.220419
v 0.375000 0.577500 0.000000
v 0.303381 0.577500 0.220419
v 0.000000 0.522500 0.000000
v 0.375000 0.522500 0.000000
v 0.303381 0.522500 0.220419
v 0.000000 0.577500 0.000000
v 0.303381 0.577500 0.220419
v 0.375000 0.577500 0.000000
v 0.303381 0.522500 0.220419
v 0.303381 0.577500 0.220419
v 0.115881 0.522500 0.356646
v 0.115881 0.522500 0.356646
v 0.303381 0.577500 0.220419
v 0.115881 0.577500 0.356646
v 0.000000 0.522500 0.000000
v 0.303381 0.522500 0.220419
v 0.115881 0.522500 0.356646
v 0.000000 0.577500 0.000000
v 0.115881 0.577500 0.356646
v 0.303381 0.577500 0.220419
v 0.115881 0.522500 0.356646
v 0.115881 0.577500 0.356646
v -0.115881 0.522500 0.356646
v -0.115881 0.522500 0.356646
v 0.115881 0.577500 0.356646
v -0.115881 0.577500 0.356646
v 0.000000 0.522500 0.000000
v 0.115881 0.522500 0.356646
v -0.115881 0.522500 0.356646
v 0.000000 0.577500 0.000000
v -0.115881 0.577500 0.356646
v 0.115881 0.577500 0.356646
v -0.115881 0.522500 0.356646
v -0.115881 0.577500 0.356646
v -0.303381 0.522500 0.220419
v -0.303381 0.522500 0.220419
v -0.115881 0.577500 0.356646
v -0.303381 0.577500 0.220419
v 0.000000 0.522500 0.000000
v -0.115881 0.522500 0.356646
v -0.303381 0.522500 0.220419
v 0.000000 0.577500 0.000000
v -0.303381 0.577500 0.220419
v -0.115881 0.577500 0.356646
v -0.303381 0.522500 0.220419
v -0.303381 0.577500 0.220419
v -0.375000 0.522500 0.000000
v -0.375000 0.522500 0.000000
v -0.303381 0.577500 0.220419
v -0.375000 0.577500 0.000000
v 0.000000 0.522500 0.000000
v -0.303381 0.522500 0.220419
v -0.375000 0.522500 0.000000
v 0.000000 0.577500 0.000000
v -0.375000 0.577500 0.000000
v -0.303381 0.577500 0.220419
v -0.375000 0.522500 0.000000
v -0.375000 0.577500 0.000000
v -0.303381 0.522500 -0.220419
v -0.303381 0.522500 -0.220419
v -0.375000 0.577500 0.000000
v -0.303381 0.577500 -0.220419
v 0.000000 0.522500 0.000000
v -0.375000 0.522500 0.000000
v -0.303381 0.522500 -0.220419
v 0.000000 0.577500 0.000000
v -0.303381 0.577500 -0.220419
v -0.375000 0.577500 0.000000
v -0.303381 0.522500 -0.220419
v -0.303381 0.577500 -0.220419
v -0.115881 0.522500 -0.356646
v -0.115881 0.522500 -0.356646
v -0.303381 0.577500 -0.220419
v -0.115881 0.577500 -0.356646
v 0.000000 0.522500 0.000000
v -0.303381 0.522500 -0.220419
v -0.115881 0.522500 -0.356646
v 0.000000 0.577500 0.000000
v -0.115881 0.577500 -0.356646
v -0.303381 0.577500 -0.220419
v -0.115881 0.522500 -0.356646
v -0.115881 0.577500 -0.356646
v 0.115881 0.522500 -0.356646
v 0.115881 0.522500 -0.356646
v -0.115881 0.577500 -0.356646
v 0.115881 0.577500 -0.356646
v 0.000000 0.522500 0.000000
v -0.115881 0.522500 -0.356646
v 0.115881 0.522500 -0.356646
v 0.000000 0.577500 0.000000
v 0.115881 0.577500 -0.356646
v -0.115881 0.577500 -0.356646
v 0.115881 0.522500 -0.356646
v 0.115881 0.577500 -0.356646
v 0.303381 0.522500 -0.220419
v 0.303381 0.522500 -0.220419
v 0.115881 0.577500 -0.356646
v 0.303381 0.577500 -0.220419
v 0.000000 0.522500 0.000000
v 0.115881 0.522500 -0.356646
v 0.303381 0.522500 -0.220419
v 0.000000 0.577500 0.000000
v 0.303381 0.577500 -0.220419
v 0.115881 0.577500 -0.356646
v 0.303381 0.522500 -0.220419
v 0.303381 0.577500 -0.220419
v 0.375000 0.522500 0.000000
v 0.375000 0.522500 0.000000
v 0.303381 0.577500 -0.220419
v 0.375000 0.577500 0.000000
v 0.000000 0.522500 0.000000
v 0.303381 0.522500 -0.220419
v 0.375000 0.522500 0.000000
v 0.000000 0.577500 0.000000
v 0.375000 0.577500 0.000000
v 0.303381 0.577500 -0.220419
v 0.380000 0.625000 0.000000
v 0.380000 0.715000 0.000000
v 0.307426 0.625000 0.223358
v 0.307426 0.625000 0.223358
v 0.380000 0.715000 0.000000
v 0.307426 0.715000 0.223358
v 0.000000 0.625000 0.000000
v 0.380000 0.625000 0.000000
v 0.307426 0.625000 0.223358
v 0.000000 0.715000 0.000000
v 0.307426 0.715000 0.223358
v 0.380000 0.715000 0.000000
v 0.307426 0.625000 0.223358
v 0.307426 0.715000 0.223358
v 0.117426 0.625000 0.361401
v 0.117426 0.625000 0.361401
v 0.307426 0.715000 0.223358
v 0.117426 0.715000 0.361401
v 0.000000 0.625000 0.000000
v 0.307426 0.625000 0.223358
v 0.117426 0.625000 0.361401
v 0.000000 0.715000 0.000000
v 0.117426 0.715000 0.361401
v 0.307426 0.715000 0.223358
v 0.117426 0.625000 0.361401
v 0.117426 0.715000 0.361401
v -0.117426 0.625000 0.361401
v -0.117426 0.625000 0.361401
v 0.117426 0.715000 0.361401
v -0.117426 0.715000 0.361401
v 0.000000 0.625000 0.000000
v 0.117426 0.625000 0.361401
v -0.117426 0.625000 0.361401
v 0.000000 0.715000 0.000000
v -0.117426 0.715000 0.361401
v 0.117426 0.715000 0.361401
v -0.117426 0.625000 0.361401
v -0.117426 0.715000 0.361401
v -0.307426 0.625000 0.223358
v -0.307426 0.625000 0.223358
v -0.117426 0.715000 0.361401
v -0.307426 0.715000 0.223358
v 0.000000 0.625000 0.000000
v -0.117426 0.625000 0.361401
v -0.307426 0.625000 0.223358
v 0.000000 0.715000 0.000000
v -0.307426 0.715000 0.223358
v -0.117426 0.715000 0.361401
v -0.307426 0.625000 0.223358
v -0.307426 0.715000 0.223358
v -0.380000 0.625000 0.000000
v -0.380000 0.625000 0.000000
v -0.307426 0.715000 0.223358
v -0.380000 0.715000 0.000000
v 0.000000 0.625000 0.000000
v -0.307426 0.625000 0.223358
v -0.380000 0.625000 0.000000
v 0.000000 0.715000 0.000000
v -0.380000 0.715000 0.000000
v -0.307426 0.715000 0.223358
v -0.380000 0.625000 0.000000
v -0.380000 0.715000 0.000000
v -0.307426 0.625000 -0.223358
v -0.307426 0.625000 -0.223358
v -0.380000 0.715000 0.000000
v -0.307426 0.715000 -0.223358
v 0.000000 0.625000 0.000000
v -0.380000 0.625000 0.000000
v -0.307426 0.625000 -0.223358
v 0.000000 0.715000 0.000000
v -0.307426 0.715000 -0.223358
v -0.380000 0.715000 0.000000
v -0.307426 0.625000 -0.223358
v -0.307426 0.715000 -0.223358
v -0.117426 0.625000 -0.361401
v -0.117426 0.625000 -0.361401
v -0.307426 0.715000 -0.223358
v -0.117426 0.715000 -0.361401
v 0.000000 0.625000 0.000000
v -0.307426 0.625000 -0.223358
v -0.117426 0.625000 -0.361401
v 0.000000 0.715000 0.000000
v -0.117426 0.715000 -0.361401
v -0.307426 0.715000 -0.223358
v -0.117426 0.625000 -0.361401
v -0.117426 0.715000 -0.361401
v 0.117426 0.625000 -0.361401
v 0.117426 0.625000 -0.361401
v -0.117426 0.715000 -0.361401
v 0.117426 0.715000 -0.361401
v 0.000000 0.625000 0.000000
v -0.117426 0.625000 -0.361401
v 0.117426 0.625000 -0.361401
v 0.000000 0.715000 0.000000
v 0.117426 0.715000 -0.361401
v -0.117426 0.715000 -0.361401
v 0.117426 0.625000 -0.361401
v 0.117426 0.715000 -0.361401
v 0.307426 0.625000 -0.223358
v 0.307426 0.625000 -0.223358
v 0.117426 0.715000 -0.361401
v 0.307426 0.715000 -0.223358
v 0.000000 0.625000 0.000000
v 0.117426 0.625000 -0.361401
v 0.307426 0.625000 -0.223358
v 0.000000 0.715000 0.000000
v 0.307426 0.715000 -0.223358
v 0.117426 0.715000 -0.361401
v 0.307426 0.625000 -0.223358
v 0.307426 0.715000 -0.223358
v 0.380000 0.625000 0.000000
v 0.380000 0.625000 0.000000
v 0.307426 0.715000 -0.223358
v 0.380000 0.715000 0.000000
v 0.000000 0.625000 0.000000
v 0.307426 0.625000 -0.223358
v 0.380000 0.625000 0.000000
v 0.000000 0.715000 0.000000
v 0.380000 0.715000 0.000000
v 0.307426 0.715000 -0.223358
v -0.060000 0.926080 0.000000
v -0.023707 0.928210 0.012885
v -0.019962 0.930289 0.000000
v -0.051840 0.718000 0.000000
v -0.026119 0.726672 0.000000
v -0.023360 0.710754 0.013009
v -0.060000 0.926080 0.000000
v -0.034524 0.919245 0.021837
v -0.023707 0.928210 0.012885
v -0.051840 0.718000 0.000000
v -0.023360 0.710754 0.013009
v -0.031445 0.708762 0.024475
v -0.060000 0.926080 0.000000
v -0.046081 0.920193 0.028804
v -0.034524 0.919245 0.021837
v -0.051840 0.718000 0.000000
v -0.031445 0.708762 0.024475
v -0.046428 0.722308 0.028085
v -0.060000 0.926080 0.000000
v -0.060000 0.916954 0.030169
v -0.046081 0.920193 0.028804
v -0.051840 0.718000 0.000000
v -0.046428 0.722308 0.028085
v -0.060000 0.723046 0.030169
v -0.060000 0.926080 0.000000
v -0.073572 0.917692 0.028085
v -0.060000 0.916954 0.030169
v -0.051840 0.718000 0.000000
v -0.060000 0.723046 0.030169
v -0.073919 0.719807 0.028804
v -0.060000 0.926080 0.000000
v -0.088555 0.931238 0.024475
v -0.073572 0.917692 0.028085
v -0.051840 0.718000 0.000000
v -0.073919 0.719807 0.028804
v -0.085476 0.720755 0.021837
v -0.060000 0.926080 0.000000
v -0.096640 0.929246 0.013009
v -0.088555 0.931238 0.024475
v -0.051840 0.718000 0.000000
v -0.085476 0.720755 0.021837
v -0.096293 0.711790 0.012885
v -0.060000 0.926080 0.000000
v -0.093881 0.913328 0.000000
v -0.096640 0.929246 0.013009
v -0.051840 0.718000 0.000000
v -0.096293 0.711790 0.012885
v -0.100038 0.709711 0.000000
v -0.060000 0.926080 0.000000
v -0.091999 0.915407 -0.011361
v -0.093881 0.913328 0.000000
v -0.051840 0.718000 0.000000
v -0.100038 0.709711 0.000000
v -0.091652 0.725629 -0.011238
v -0.060000 0.926080 0.000000
v -0.086792 0.924373 -0.022965
v -0.091999 0.915407 -0.011361
v -0.051840 0.718000 0.000000
v -0.091652 0.725629 -0.011238
v -0.083714 0.727620 -0.020326
v -0.060000 0.926080 0.000000
v -0.074368 0.923424 -0.029732
v -0.086792 0.924373 -0.022965
v -0.051840 0.718000 0.000000
v -0.083714 0.727620 -0.020326
v -0.074716 0.714075 -0.030451
v -0.060000 0.926080 0.000000
v -0.060000 0.926663 -0.033190
v -0.074368 0.923424 -0.029732
v -0.051840 0.718000 0.000000
v -0.074716 0.714075 -0.030451
v -0.060000 0.713337 -0.033190
v -0.060000 0.926080 0.000000
v -0.045284 0.925925 -0.030451
v -0.060000 0.926663 -0.033190
v -0.051840 0.718000 0.000000
v -0.060000 0.713337 -0.033190
v -0.045632 0.716576 -0.029732
v -0.060000 0.926080 0.000000
v -0.036286 0.912380 -0.020326
v -0.045284 0.925925 -0.030451
v -0.051840 0.718000 0.000000
v -0.045632 0.716576 -0.029732
v -0.033208 0.715627 -0.022965
v -0.060000 0.926080 0.000000
v -0.028348 0.914371 -0.011238
v -0.036286 0.912380 -0.020326
v -0.051840 0.718000 0.000000
v -0.033208 0.715627 -0.022965
v -0.028001 0.724593 -0.011361
v -0.060000 0.926080 0.000000
v -0.019962 0.930289 0.000000
v -0.028348 0.914371 -0.011238
v -0.051840 0.718000 0.000000
v -0.028001 0.724593 -0.011361
v -0.026119 0.726672 0.000000
v -0.019962 0.930289 0.000000
v -0.023707 0.928210 0.012885
v 0.018820 0.920765 0.000000
v -0.023707 0.928210 0.012885
v 0.010059 0.916944 0.024874
v 0.018820 0.920765 0.000000
v -0.023707 0.928210 0.012885
v -0.034524 0.919245 0.021837
v 0.010059 0.916944 0.024874
v -0.034524 0.919245 0.021837
v -0.012866 0.905217 0.040401
v 0.010059 0.916944 0.024874
v -0.034524 0.919245 0.021837
v -0.046081 0.920193 0.028804
v -0.012866 0.905217 0.040401
v -0.046081 0.920193 0.028804
v -0.033741 0.907723 0.054338
v -0.012866 0.905217 0.040401
v -0.046081 0.920193 0.028804
v -0.060000 0.916954 0.030169
v -0.033741 0.907723 0.054338
v -0.060000 0.916954 0.030169
v -0.060000 0.910366 0.060588
v -0.033741 0.907723 0.054338
v -0.060000 0.916954 0.030169
v -0.073572 0.917692 0.028085
v -0.060000 0.910366 0.060588
v -0.073572 0.917692 0.028085
v -0.087133 0.910644 0.056148
v -0.060000 0.910366 0.060588
v -0.073572 0.917692 0.028085
v -0.088555 0.931238 0.024475
v -0.087133 0.910644 0.056148
v -0.088555 0.931238 0.024475
v -0.114554 0.918632 0.046761
v -0.087133 0.910644 0.056148
v -0.088555 0.931238 0.024475
v -0.096640 0.929246 0.013009
v -0.114554 0.918632 0.046761
v -0.096640 0.929246 0.013009
v -0.129184 0.915734 0.024563
v -0.114554 0.918632 0.046761
v -0.096640 0.929246 0.013009
v -0.093881 0.913328 0.000000
v -0.129184 0.915734 0.024563
v -0.093881 0.913328 0.000000
v -0.123980 0.901793 0.000000
v -0.129184 0.915734 0.024563
v -0.093881 0.913328 0.000000
v -0.091999 0.915407 -0.011361
v -0.123980 0.901793 0.000000
v -0.091999 0.915407 -0.011361
v -0.121871 0.905614 -0.021967
v -0.123980 0.901793 0.000000
v -0.091999 0.915407 -0.011361
v -0.086792 0.924373 -0.022965
v -0.121871 0.905614 -0.021967
v -0.086792 0.924373 -0.022965
v -0.113840 0.917341 -0.046149
v -0.121871 0.905614 -0.021967
v -0.086792 0.924373 -0.022965
v -0.074368 0.923424 -0.029732
v -0.113840 0.917341 -0.046149
v -0.074368 0.923424 -0.029732
v -0.088388 0.914836 -0.058744
v -0.113840 0.917341 -0.046149
v -0.074368 0.923424 -0.029732
v -0.060000 0.926663 -0.033190
v -0.088388 0.914836 -0.058744
v -0.060000 0.926663 -0.033190
v -0.060000 0.912192 -0.061812
v -0.088388 0.914836 -0.058744
v -0.060000 0.926663 -0.033190
v -0.045284 0.925925 -0.030451
v -0.060000 0.912192 -0.061812
v -0.045284 0.925925 -0.030451
v -0.032486 0.911914 -0.056935
v -0.060000 0.912192 -0.061812
v -0.045284 0.925925 -0.030451
v -0.036286 0.912380 -0.020326
v -0.032486 0.911914 -0.056935
v -0.036286 0.912380 -0.020326
v -0.013580 0.903926 -0.039789
v -0.032486 0.911914 -0.056935
v -0.036286 0.912380 -0.020326
v -0.028348 0.914371 -0.011238
v -0.013580 0.903926 -0.039789
v -0.028348 0.914371 -0.011238
v 0.002746 0.906824 -0.022277
v -0.013580 0.903926 -0.039789
v -0.028348 0.914371 -0.011238
v -0.019962 0.930289 0.000000
v 0.002746 0.906824 -0.022277
v -0.019962 0.930289 0.000000
v 0.018820 0.920765 0.000000
v 0.002746 0.906824 -0.022277
v 0.018820 0.920765 0.000000
v 0.010059 0.916944 0.024874
v 0.051613 0.902381 0.000000
v 0.010059 0.916944 0.024874
v 0.037573 0.897952 0.034642
v 0.051613 0.902381 0.000000
v 0.010059 0.916944 0.024874
v -0.012866 0.905217 0.040401
v 0.037573 0.897952 0.034642
v -0.012866 0.905217 0.040401
v 0.004296 0.887114 0.055111
v 0.037573 0.897952 0.034642
v -0.012866 0.905217 0.040401
v -0.033741 0.907723 0.054338
v 0.004296 0.887114 0.055111
v -0.033741 0.907723 0.054338
v -0.023118 0.891135 0.076320
v 0.004296 0.887114 0.055111
v -0.033741 0.907723 0.054338
v -0.060000 0.910366 0.060588
v -0.023118 0.891135 0.076320
v -0.060000 0.910366 0.060588
v -0.060000 0.897164 0.089610
v -0.023118 0.891135 0.076320
v -0.060000 0.910366 0.060588
v -0.087133 0.910644 0.056148
v -0.060000 0.897164 0.089610
v -0.087133 0.910644 0.056148
v -0.099355 0.895906 0.081439
v -0.060000 0.897164 0.089610
v -0.087133 0.910644 0.056148
v -0.114554 0.918632 0.046761
v -0.099355 0.895906 0.081439
v -0.114554 0.918632 0.046761
v -0.134934 0.898218 0.064229
v -0.099355 0.895906 0.081439
v -0.114554 0.918632 0.046761
v -0.129184 0.915734 0.024563
v -0.134934 0.898218 0.064229
v -0.129184 0.915734 0.024563
v -0.155099 0.895975 0.033764
v -0.134934 0.898218 0.064229
v -0.129184 0.915734 0.024563
v -0.123980 0.901793 0.000000
v -0.155099 0.895975 0.033764
v -0.123980 0.901793 0.000000
v -0.150337 0.886677 0.000000
v -0.155099 0.895975 0.033764
v -0.123980 0.901793 0.000000
v -0.121871 0.905614 -0.021967
v -0.150337 0.886677 0.000000
v -0.121871 0.905614 -0.021967
v -0.149005 0.891107 -0.031600
v -0.150337 0.886677 0.000000
v -0.121871 0.905614 -0.021967
v -0.113840 0.917341 -0.046149
v -0.149005 0.891107 -0.031600
v -0.113840 0.917341 -0.046149
v -0.138504 0.901945 -0.067289
v -0.149005 0.891107 -0.031600
v -0.113840 0.917341 -0.046149
v -0.088388 0.914836 -0.058744
v -0.138504 0.901945 -0.067289
v -0.088388 0.914836 -0.058744
v -0.100401 0.897923 -0.083603
v -0.138504 0.901945 -0.067289
v -0.088388 0.914836 -0.058744
v -0.060000 0.912192 -0.061812
v -0.100401 0.897923 -0.083603
v -0.060000 0.912192 -0.061812
v -0.060000 0.891894 -0.083490
v -0.100401 0.897923 -0.083603
v -0.060000 0.912192 -0.061812
v -0.032486 0.911914 -0.056935
v -0.060000 0.891894 -0.083490
v -0.032486 0.911914 -0.056935
v -0.022073 0.893152 -0.078484
v -0.060000 0.891894 -0.083490
v -0.032486 0.911914 -0.056935
v -0.013580 0.903926 -0.039789
v -0.022073 0.893152 -0.078484
v -0.013580 0.903926 -0.039789
v 0.007866 0.890840 -0.058171
v -0.022073 0.893152 -0.078484
v -0.013580 0.903926 -0.039789
v 0.002746 0.906824 -0.022277
v 0.007866 0.890840 -0.058171
v 0.002746 0.906824 -0.022277
v 0.031478 0.893083 -0.032478
v 0.007866 0.890840 -0.058171
v 0.002746 0.906824 -0.022277
v 0.018820 0.920765 0.000000
v 0.031478 0.893083 -0.032478
v 0.018820 0.920765 0.000000
v 0.051613 0.902381 0.000000
v 0.031478 0.893083 -0.032478
v 0.051613 0.902381 0.000000
v 0.037573 0.897952 0.034642
v 0.074257 0.877212 0.000000
v 0.037573 0.897952 0.034642
v 0.056688 0.873823 0.041429
v 0.074257 0.877212 0.000000
v 0.037573 0.897952 0.034642
v 0.004296 0.887114 0.055111
v 0.056688 0.873823 0.041429
v 0.004296 0.887114 0.055111
v 0.017311 0.866591 0.066266
v 0.056688 0.873823 0.041429
v 0.004296 0.887114 0.055111
v -0.023118 0.891135 0.076320
v 0.017311 0.866591 0.066266
v -0.023118 0.891135 0.076320
v -0.014382 0.870798 0.094399
v 0.017311 0.866591 0.066266
v -0.023118 0.891135 0.076320
v -0.060000 0.897164 0.089610
v -0.014382 0.870798 0.094399
v -0.060000 0.897164 0.089610
v -0.060000 0.876826 0.114302
v -0.014382 0.870798 0.094399
v -0.060000 0.897164 0.089610
v -0.099355 0.895906 0.081439
v -0.060000 0.876826 0.114302
v -0.099355 0.895906 0.081439
v -0.108733 0.874267 0.100845
v -0.060000 0.876826 0.114302
v -0.099355 0.895906 0.081439
v -0.134934 0.898218 0.064229
v -0.108733 0.874267 0.100845
v -0.134934 0.898218 0.064229
v -0.147899 0.872973 0.075342
v -0.108733 0.874267 0.100845
v -0.134934 0.898218 0.064229
v -0.155099 0.895975 0.033764
v -0.147899 0.872973 0.075342
v -0.155099 0.895975 0.033764
v -0.173573 0.872386 0.040323
v -0.147899 0.872973 0.075342
v -0.155099 0.895975 0.033764
v -0.150337 0.886677 0.000000
v -0.173573 0.872386 0.040323
v -0.150337 0.886677 0.000000
v -0.173080 0.868188 0.000000
v -0.173573 0.872386 0.040323
v -0.150337 0.886677 0.000000
v -0.149005 0.891107 -0.031600
v -0.173080 0.868188 0.000000
v -0.149005 0.891107 -0.031600
v -0.171821 0.871577 -0.039701
v -0.173080 0.868188 0.000000
v -0.149005 0.891107 -0.031600
v -0.138504 0.901945 -0.067289
v -0.171821 0.871577 -0.039701
v -0.138504 0.901945 -0.067289
v -0.157583 0.878809 -0.083642
v -0.171821 0.871577 -0.039701
v -0.138504 0.901945 -0.067289
v -0.100401 0.897923 -0.083603
v -0.157583 0.878809 -0.083642
v -0.100401 0.897923 -0.083603
v -0.109034 0.874602 -0.101467
v -0.157583 0.878809 -0.083642
v -0.100401 0.897923 -0.083603
v -0.060000 0.891894 -0.083490
v -0.109034 0.874602 -0.101467
v -0.060000 0.891894 -0.083490
v -0.060000 0.868574 -0.097701
v -0.109034 0.874602 -0.101467
v -0.060000 0.891894 -0.083490
v -0.022073 0.893152 -0.078484
v -0.060000 0.868574 -0.097701
v -0.022073 0.893152 -0.078484
v -0.014081 0.871133 -0.095021
v -0.060000 0.868574 -0.097701
v -0.022073 0.893152 -0.078484
v 0.007866 0.890840 -0.058171
v -0.014081 0.871133 -0.095021
v 0.007866 0.890840 -0.058171
v 0.026994 0.872427 -0.074566
v -0.014081 0.871133 -0.095021
v 0.007866 0.890840 -0.058171
v 0.031478 0.893083 -0.032478
v 0.026994 0.872427 -0.074566
v 0.031478 0.893083 -0.032478
v 0.054936 0.873014 -0.040807
v 0.026994 0.872427 -0.074566
v 0.031478 0.893083 -0.032478
v 0.051613 0.902381 0.000000
v 0.054936 0.873014 -0.040807
v 0.051613 0.902381 0.000000
v 0.074257 0.877212 0.000000
v 0.054936 0.873014 -0.040807
v 0.074257 0.877212 0.000000
v 0.056688 0.873823 0.041429
v 0.084547 0.848587 0.000000
v 0.056688 0.873823 0.041429
v 0.067059 0.847199 0.045111
v 0.084547 0.848587 0.000000
v 0.056688 0.873823 0.041429
v 0.017311 0.866591 0.066266
v 0.067059 0.847199 0.045111
v 0.017311 0.866591 0.066266
v 0.026716 0.844254 0.074328
v 0.067059 0.847199 0.045111
v 0.017311 0.866591 0.066266
v -0.014382 0.870798 0.094399
v 0.026716 0.844254 0.074328
v -0.014382 0.870798 0.094399
v -0.008042 0.846852 0.107519
v 0.026716 0.844254 0.074328
v -0.014382 0.870798 0.094399
v -0.060000 0.876826 0.114302
v -0.008042 0.846852 0.107519
v -0.060000 0.876826 0.114302
v -0.060000 0.850251 0.131107
v -0.008042 0.846852 0.107519
v -0.060000 0.876826 0.114302
v -0.108733 0.874267 0.100845
v -0.060000 0.850251 0.131107
v -0.108733 0.874267 0.100845
v -0.114110 0.847964 0.111971
v -0.060000 0.850251 0.131107
v -0.108733 0.874267 0.100845
v -0.147899 0.872973 0.075342
v -0.114110 0.847964 0.111971
v -0.147899 0.872973 0.075342
v -0.153329 0.846103 0.079996
v -0.114110 0.847964 0.111971
v -0.147899 0.872973 0.075342
v -0.173573 0.872386 0.040323
v -0.153329 0.846103 0.079996
v -0.173573 0.872386 0.040323
v -0.184908 0.846739 0.044347
v -0.153329 0.846103 0.079996
v -0.173573 0.872386 0.040323
v -0.173080 0.868188 0.000000
v -0.184908 0.846739 0.044347
v -0.173080 0.868188 0.000000
v -0.191322 0.845972 0.000000
v -0.184908 0.846739 0.044347
v -0.173080 0.868188 0.000000
v -0.171821 0.871577 -0.039701
v -0.191322 0.845972 0.000000
v -0.171821 0.871577 -0.039701
v -0.187810 0.847360 -0.045378
v -0.191322 0.845972 0.000000
v -0.171821 0.871577 -0.039701
v -0.157583 0.878809 -0.083642
v -0.187810 0.847360 -0.045378
v -0.157583 0.878809 -0.083642
v -0.168352 0.850305 -0.092873
v -0.187810 0.847360 -0.045378
v -0.157583 0.878809 -0.083642
v -0.109034 0.874602 -0.101467
v -0.168352 0.850305 -0.092873
v -0.109034 0.874602 -0.101467
v -0.113612 0.847707 -0.110941
v -0.168352 0.850305 -0.092873
v -0.109034 0.874602 -0.101467
v -0.060000 0.868574 -0.097701
v -0.113612 0.847707 -0.110941
v -0.060000 0.868574 -0.097701
v -0.060000 0.844308 -0.105352
v -0.113612 0.847707 -0.110941
v -0.060000 0.868574 -0.097701
v -0.014081 0.871133 -0.095021
v -0.060000 0.844308 -0.105352
v -0.014081 0.871133 -0.095021
v -0.008540 0.846595 -0.106488
v -0.060000 0.844308 -0.105352
v -0.014081 0.871133 -0.095021
v 0.026994 0.872427 -0.074566
v -0.008540 0.846595 -0.106488
v 0.026994 0.872427 -0.074566
v 0.041740 0.848456 -0.087205
v -0.008540 0.846595 -0.106488
v 0.026994 0.872427 -0.074566
v 0.054936 0.873014 -0.040807
v 0.041740 0.848456 -0.087205
v 0.054936 0.873014 -0.040807
v 0.069961 0.847820 -0.046142
v 0.041740 0.848456 -0.087205
v 0.054936 0.873014 -0.040807
v 0.074257 0.877212 0.000000
v 0.069961 0.847820 -0.046142
v 0.074257 0.877212 0.000000
v 0.084547 0.848587 0.000000
v 0.069961 0.847820 -0.046142
v 0.084547 0.848587 0.000000
v 0.067059 0.847199 0.045111
v 0.082800 0.820000 0.000000
v 0.067059 0.847199 0.045111
v 0.069492 0.820000 0.045975
v 0.082800 0.820000 0.000000
v 0.067059 0.847199 0.045111
v 0.026716 0.844254 0.074328
v 0.069492 0.820000 0.045975
v 0.026716 0.844254 0.074328
v 0.032407 0.820000 0.079206
v 0.069492 0.820000 0.045975
v 0.026716 0.844254 0.074328
v -0.008042 0.846852 0.107519
v 0.032407 0.820000 0.079206
v -0.008042 0.846852 0.107519
v -0.004935 0.820000 0.113948
v 0.032407 0.820000 0.079206
v -0.008042 0.846852 0.107519
v -0.060000 0.850251 0.131107
v -0.004935 0.820000 0.113948
v -0.060000 0.850251 0.131107
v -0.060000 0.820000 0.137088
v -0.004935 0.820000 0.113948
v -0.060000 0.850251 0.131107
v -0.114110 0.847964 0.111971
v -0.060000 0.820000 0.137088
v -0.114110 0.847964 0.111971
v -0.115065 0.820000 0.113948
v -0.060000 0.820000 0.137088
v -0.114110 0.847964 0.111971
v -0.153329 0.846103 0.079996
v -0.115065 0.820000 0.113948
v -0.153329 0.846103 0.079996
v -0.152407 0.820000 0.079206
v -0.115065 0.820000 0.113948
v -0.153329 0.846103 0.079996
v -0.184908 0.846739 0.044347
v -0.152407 0.820000 0.079206
v -0.184908 0.846739 0.044347
v -0.189492 0.820000 0.045975
v -0.152407 0.820000 0.079206
v -0.184908 0.846739 0.044347
v -0.191322 0.845972 0.000000
v -0.189492 0.820000 0.045975
v -0.191322 0.845972 0.000000
v -0.202800 0.820000 0.000000
v -0.189492 0.820000 0.045975
v -0.191322 0.845972 0.000000
v -0.187810 0.847360 -0.045378
v -0.202800 0.820000 0.000000
v -0.187810 0.847360 -0.045378
v -0.194368 0.820000 -0.047706
v -0.202800 0.820000 0.000000
v -0.187810 0.847360 -0.045378
v -0.168352 0.850305 -0.092873
v -0.194368 0.820000 -0.047706
v -0.168352 0.850305 -0.092873
v -0.169543 0.820000 -0.093894
v -0.194368 0.820000 -0.047706
v -0.168352 0.850305 -0.092873
v -0.113612 0.847707 -0.110941
v -0.169543 0.820000 -0.093894
v -0.113612 0.847707 -0.110941
v -0.114229 0.820000 -0.112217
v -0.169543 0.820000 -0.093894
v -0.113612 0.847707 -0.110941
v -0.060000 0.844308 -0.105352
v -0.114229 0.820000 -0.112217
v -0.060000 0.844308 -0.105352
v -0.060000 0.820000 -0.107712
v -0.114229 0.820000 -0.112217
v -0.060000 0.844308 -0.105352
v -0.008540 0.846595 -0.106488
v -0.060000 0.820000 -0.107712
v -0.008540 0.846595 -0.106488
v -0.005771 0.820000 -0.112217
v -0.060000 0.820000 -0.107712
v -0.008540 0.846595 -0.106488
v 0.041740 0.848456 -0.087205
v -0.005771 0.820000 -0.112217
v 0.041740 0.848456 -0.087205
v 0.049543 0.820000 -0.093894
v -0.005771 0.820000 -0.112217
v 0.041740 0.848456 -0.087205
v 0.069961 0.847820 -0.046142
v 0.049543 0.820000 -0.093894
v 0.069961 0.847820 -0.046142
v 0.074368 0.820000 -0.047706
v 0.049543 0.820000 -0.093894
v 0.069961 0.847820 -0.046142
v 0.084547 0.848587 0.000000
v 0.074368 0.820000 -0.047706
v 0.084547 0.848587 0.000000
v 0.082800 0.820000 0.000000
v 0.074368 0.820000 -0.047706
v 0.082800 0.820000 0.000000
v 0.069492 0.820000 0.045975
v 0.071322 0.794028 0.000000
v 0.069492 0.820000 0.045975
v 0.064908 0.793261 0.044347
v 0.071322 0.794028 0.000000
v 0.069492 0.820000 0.045975
v 0.032407 0.820000 0.079206
v 0.064908 0.793261 0.044347
v 0.032407 0.820000 0.079206
v 0.033329 0.793897 0.079996
v 0.064908 0.793261 0.044347
v 0.032407 0.820000 0.079206
v -0.004935 0.820000 0.113948
v 0.033329 0.793897 0.079996
v -0.004935 0.820000 0.113948
v -0.005890 0.792036 0.111971
v 0.033329 0.793897 0.079996
v -0.004935 0.820000 0.113948
v -0.060000 0.820000 0.137088
v -0.005890 0.792036 0.111971
v -0.060000 0.820000 0.137088
v -0.060000 0.789749 0.131107
v -0.005890 0.792036 0.111971
v -0.060000 0.820000 0.137088
v -0.115065 0.820000 0.113948
v -0.060000 0.789749 0.131107
v -0.115065 0.820000 0.113948
v -0.111958 0.793148 0.107519
v -0.060000 0.789749 0.131107
v -0.115065 0.820000 0.113948
v -0.152407 0.820000 0.079206
v -0.111958 0.793148 0.107519
v -0.152407 0.820000 0.079206
v -0.146716 0.795746 0.074328
v -0.111958 0.793148 0.107519
v -0.152407 0.820000 0.079206
v -0.189492 0.820000 0.045975
v -0.146716 0.795746 0.074328
v -0.189492 0.820000 0.045975
v -0.187059 0.792801 0.045111
v -0.146716 0.795746 0.074328
v -0.189492 0.820000 0.045975
v -0.202800 0.820000 0.000000
v -0.187059 0.792801 0.045111
v -0.202800 0.820000 0.000000
v -0.204547 0.791413 0.000000
v -0.187059 0.792801 0.045111
v -0.202800 0.820000 0.000000
v -0.194368 0.820000 -0.047706
v -0.204547 0.791413 0.000000
v -0.194368 0.820000 -0.047706
v -0.189961 0.792180 -0.046142
v -0.204547 0.791413 0.000000
v -0.194368 0.820000 -0.047706
v -0.169543 0.820000 -0.093894
v -0.189961 0.792180 -0.046142
v -0.169543 0.820000 -0.093894
v -0.161740 0.791544 -0.087205
v -0.189961 0.792180 -0.046142
v -0.169543 0.820000 -0.093894
v -0.114229 0.820000 -0.112217
v -0.161740 0.791544 -0.087205
v -0.114229 0.820000 -0.112217
v -0.111460 0.793405 -0.106488
v -0.161740 0.791544 -0.087205
v -0.114229 0.820000 -0.112217
v -0.060000 0.820000 -0.107712
v -0.111460 0.793405 -0.106488
v -0.060000 0.820000 -0.107712
v -0.060000 0.795692 -0.105352
v -0.111460 0.793405 -0.106488
v -0.060000 0.820000 -0.107712
v -0.005771 0.820000 -0.112217
v -0.060000 0.795692 -0.105352
v -0.005771 0.820000 -0.112217
v -0.006388 0.792293 -0.110941
v -0.060000 0.795692 -0.105352
v -0.005771 0.820000 -0.112217
v 0.049543 0.820000 -0.093894
v -0.006388 0.792293 -0.110941
v 0.049543 0.820000 -0.093894
v 0.048352 0.789695 -0.092873
v -0.006388 0.792293 -0.110941
v 0.049543 0.820000 -0.093894
v 0.074368 0.820000 -0.047706
v 0.048352 0.789695 -0.092873
v 0.074368 0.820000 -0.047706
v 0.067810 0.792640 -0.045378
v 0.048352 0.789695 -0.092873
v 0.074368 0.820000 -0.047706
v 0.082800 0.820000 0.000000
v 0.067810 0.792640 -0.045378
v 0.082800 0.820000 0.000000
v 0.071322 0.794028 0.000000
v 0.067810 0.792640 -0.045378
v 0.071322 0.794028 0.000000
v 0.064908 0.793261 0.044347
v 0.053080 0.771812 0.000000
v 0.064908 0.793261 0.044347
v 0.053573 0.767614 0.040323
v 0.053080 0.771812 0.000000
v 0.064908 0.793261 0.044347
v 0.033329 0.793897 0.079996
v 0.053573 0.767614 0.040323
v 0.033329 0.793897 0.079996
v 0.027899 0.767027 0.075342
v 0.053573 0.767614 0.040323
v 0.033329 0.793897 0.079996
v -0.005890 0.792036 0.111971
v 0.027899 0.767027 0.075342
v -0.005890 0.792036 0.111971
v -0.011267 0.765733 0.100845
v 0.027899 0.767027 0.075342
v -0.005890 0.792036 0.111971
v -0.060000 0.789749 0.131107
v -0.011267 0.765733 0.100845
v -0.060000 0.789749 0.131107
v -0.060000 0.763174 0.114302
v -0.011267 0.765733 0.100845
v -0.060000 0.789749 0.131107
v -0.111958 0.793148 0.107519
v -0.060000 0.763174 0.114302
v -0.111958 0.793148 0.107519
v -0.105618 0.769202 0.094399
v -0.060000 0.763174 0.114302
v -0.111958 0.793148 0.107519
v -0.146716 0.795746 0.074328
v -0.105618 0.769202 0.094399
v -0.146716 0.795746 0.074328
v -0.137311 0.773409 0.066266
v -0.105618 0.769202 0.094399
v -0.146716 0.795746 0.074328
v -0.187059 0.792801 0.045111
v -0.137311 0.773409 0.066266
v -0.187059 0.792801 0.045111
v -0.176688 0.766177 0.041429
v -0.137311 0.773409 0.066266
v -0.187059 0.792801 0.045111
v -0.204547 0.791413 0.000000
v -0.176688 0.766177 0.041429
v -0.204547 0.791413 0.000000
v -0.194257 0.762788 0.000000
v -0.176688 0.766177 0.041429
v -0.204547 0.791413 0.000000
v -0.189961 0.792180 -0.046142
v -0.194257 0.762788 0.000000
v -0.189961 0.792180 -0.046142
v -0.174936 0.766986 -0.040807
v -0.194257 0.762788 0.000000
v -0.189961 0.792180 -0.046142
v -0.161740 0.791544 -0.087205
v -0.174936 0.766986 -0.040807
v -0.161740 0.791544 -0.087205
v -0.146994 0.767573 -0.074566
v -0.174936 0.766986 -0.040807
v -0.161740 0.791544 -0.087205
v -0.111460 0.793405 -0.106488
v -0.146994 0.767573 -0.074566
v -0.111460 0.793405 -0.106488
v -0.105919 0.768867 -0.095021
v -0.146994 0.767573 -0.074566
v -0.111460 0.793405 -0.106488
v -0.060000 0.795692 -0.105352
v -0.105919 0.768867 -0.095021
v -0.060000 0.795692 -0.105352
v -0.060000 0.771426 -0.097701
v -0.105919 0.768867 -0.095021
v -0.060000 0.795692 -0.105352
v -0.006388 0.792293 -0.110941
v -0.060000 0.771426 -0.097701
v -0.006388 0.792293 -0.110941
v -0.010966 0.765398 -0.101467
v -0.060000 0.771426 -0.097701
v -0.006388 0.792293 -0.110941
v 0.048352 0.789695 -0.092873
v -0.010966 0.765398 -0.101467
v 0.048352 0.789695 -0.092873
v 0.037583 0.761191 -0.083642
v -0.010966 0.765398 -0.101467
v 0.048352 0.789695 -0.092873
v 0.067810 0.792640 -0.045378
v 0.037583 0.761191 -0.083642
v 0.067810 0.792640 -0.045378
v 0.051821 0.768423 -0.039701
v 0.037583 0.761191 -0.083642
v 0.067810 0.792640 -0.045378
v 0.071322 0.794028 0.000000
v 0.051821 0.768423 -0.039701
v 0.071322 0.794028 0.000000
v 0.053080 0.771812 0.000000
v 0.051821 0.768423 -0.039701
v 0.053080 0.771812 0.000000
v 0.053573 0.767614 0.040323
v 0.030337 0.753323 0.000000
v 0.053573 0.767614 0.040323
v 0.035099 0.744025 0.033764
v 0.030337 0.753323 0.000000
v 0.053573 0.767614 0.040323
v 0.027899 0.767027 0.075342
v 0.035099 0.744025 0.033764
v 0.027899 0.767027 0.075342
v 0.014934 0.741782 0.064229
v 0.035099 0.744025 0.033764
v 0.027899 0.767027 0.075342
v -0.011267 0.765733 0.100845
v 0.014934 0.741782 0.064229
v -0.011267 0.765733 0.100845
v -0.020645 0.744094 0.081439
v 0.014934 0.741782 0.064229
v -0.011267 0.765733 0.100845
v -0.060000 0.763174 0.114302
v -0.020645 0.744094 0.081439
v -0.060000 0.763174 0.114302
v -0.060000 0.742836 0.089610
v -0.020645 0.744094 0.081439
v -0.060000 0.763174 0.114302
v -0.105618 0.769202 0.094399
v -0.060000 0.742836 0.089610
v -0.105618 0.769202 0.094399
v -0.096882 0.748865 0.076320
v -0.060000 0.742836 0.089610
v -0.105618 0.769202 0.094399
v -0.137311 0.773409 0.066266
v -0.096882 0.748865 0.076320
v -0.137311 0.773409 0.066266
v -0.124296 0.752886 0.055111
v -0.096882 0.748865 0.076320
v -0.137311 0.773409 0.066266
v -0.176688 0.766177 0.041429
v -0.124296 0.752886 0.055111
v -0.176688 0.766177 0.041429
v -0.157573 0.742048 0.034642
v -0.124296 0.752886 0.055111
v -0.176688 0.766177 0.041429
v -0.194257 0.762788 0.000000
v -0.157573 0.742048 0.034642
v -0.194257 0.762788 0.000000
v -0.171613 0.737619 0.000000
v -0.157573 0.742048 0.034642
v -0.194257 0.762788 0.000000
v -0.174936 0.766986 -0.040807
v -0.171613 0.737619 0.000000
v -0.174936 0.766986 -0.040807
v -0.151478 0.746917 -0.032478
v -0.171613 0.737619 0.000000
v -0.174936 0.766986 -0.040807
v -0.146994 0.767573 -0.074566
v -0.151478 0.746917 -0.032478
v -0.146994 0.767573 -0.074566
v -0.127866 0.749160 -0.058171
v -0.151478 0.746917 -0.032478
v -0.146994 0.767573 -0.074566
v -0.105919 0.768867 -0.095021
v -0.127866 0.749160 -0.058171
v -0.105919 0.768867 -0.095021
v -0.097927 0.746848 -0.078484
v -0.127866 0.749160 -0.058171
v -0.105919 0.768867 -0.095021
v -0.060000 0.771426 -0.097701
v -0.097927 0.746848 -0.078484
v -0.060000 0.771426 -0.097701
v -0.060000 0.748106 -0.083490
v -0.097927 0.746848 -0.078484
v -0.060000 0.771426 -0.097701
v -0.010966 0.765398 -0.101467
v -0.060000 0.748106 -0.083490
v -0.010966 0.765398 -0.101467
v -0.019599 0.742077 -0.083603
v -0.060000 0.748106 -0.083490
v -0.010966 0.765398 -0.101467
v 0.037583 0.761191 -0.083642
v -0.019599 0.742077 -0.083603
v 0.037583 0.761191 -0.083642
v 0.018504 0.738055 -0.067289
v -0.019599 0.742077 -0.083603
v 0.037583 0.761191 -0.083642
v 0.051821 0.768423 -0.039701
v 0.018504 0.738055 -0.067289
v 0.051821 0.768423 -0.039701
v 0.029005 0.748893 -0.031600
v 0.018504 0.738055 -0.067289
v 0.051821 0.768423 -0.039701
v 0.053080 0.771812 0.000000
v 0.029005 0.748893 -0.031600
v 0.053080 0.771812 0.000000
v 0.030337 0.753323 0.000000
v 0.029005 0.748893 -0.031600
v 0.030337 0.753323 0.000000
v 0.035099 0.744025 0.033764
v 0.003980 0.738207 0.000000
v 0.035099 0.744025 0.033764
v 0.009184 0.724266 0.024563
v 0.003980 0.738207 0.000000
v 0.035099 0.744025 0.033764
v 0.014934 0.741782 0.064229
v 0.009184 0.724266 0.024563
v 0.014934 0.741782 0.064229
v -0.005446 0.721368 0.046761
v 0.009184 0.724266 0.024563
v 0.014934 0.741782 0.064229
v -0.020645 0.744094 0.081439
v -0.005446 0.721368 0.046761
v -0.020645 0.744094 0.081439
v -0.032867 0.729356 0.056148
v -0.005446 0.721368 0.046761
v -0.020645 0.744094 0.081439
v -0.060000 0.742836 0.089610
v -0.032867 0.729356 0.056148
v -0.060000 0.742836 0.089610
v -0.060000 0.729634 0.060588
v -0.032867 0.729356 0.056148
v -0.060000 0.742836 0.089610
v -0.096882 0.748865 0.076320
v -0.060000 0.729634 0.060588
v -0.096882 0.748865 0.076320
v -0.086259 0.732277 0.054338
v -0.060000 0.729634 0.060588
v -0.096882 0.748865 0.076320
v -0.124296 0.752886 0.055111
v -0.086259 0.732277 0.054338
v -0.124296 0.752886 0.055111
v -0.107134 0.734783 0.040401
v -0.086259 0.732277 0.054338
v -0.124296 0.752886 0.055111
v -0.157573 0.742048 0.034642
v -0.107134 0.734783 0.040401
v -0.157573 0.742048 0.034642
v -0.130059 0.723056 0.024874
v -0.107134 0.734783 0.040401
v -0.157573 0.742048 0.034642
v -0.171613 0.737619 0.000000
v -0.130059 0.723056 0.024874
v -0.171613 0.737619 0.000000
v -0.138820 0.719235 0.000000
v -0.130059 0.723056 0.024874
v -0.171613 0.737619 0.000000
v -0.151478 0.746917 -0.032478
v -0.138820 0.719235 0.000000
v -0.151478 0.746917 -0.032478
v -0.122746 0.733176 -0.022277
v -0.138820 0.719235 0.000000
v -0.151478 0.746917 -0.032478
v -0.127866 0.749160 -0.058171
v -0.122746 0.733176 -0.022277
v -0.127866 0.749160 -0.058171
v -0.106420 0.736074 -0.039789
v -0.122746 0.733176 -0.022277
v -0.127866 0.749160 -0.058171
v -0.097927 0.746848 -0.078484
v -0.106420 0.736074 -0.039789
v -0.097927 0.746848 -0.078484
v -0.087514 0.728086 -0.056935
v -0.106420 0.736074 -0.039789
v -0.097927 0.746848 -0.078484
v -0.060000 0.748106 -0.083490
v -0.087514 0.728086 -0.056935
v -0.060000 0.748106 -0.083490
v -0.060000 0.727808 -0.061812
v -0.087514 0.728086 -0.056935
v -0.060000 0.748106 -0.083490
v -0.019599 0.742077 -0.083603
v -0.060000 0.727808 -0.061812
v -0.019599 0.742077 -0.083603
v -0.031612 0.725164 -0.058744
v -0.060000 0.727808 -0.061812
v -0.019599 0.742077 -0.083603
v 0.018504 0.738055 -0.067289
v -0.031612 0.725164 -0.058744
v 0.018504 0.738055 -0.067289
v -0.006160 0.722659 -0.046149
v -0.031612 0.725164 -0.058744
v 0.018504 0.738055 -0.067289
v 0.029005 0.748893 -0.031600
v -0.006160 0.722659 -0.046149
v 0.029005 0.748893 -0.031600
v 0.001871 0.734386 -0.021967
v -0.006160 0.722659 -0.046149
v 0.029005 0.748893 -0.031600
v 0.030337 0.753323 0.000000
v 0.001871 0.734386 -0.021967
v 0.030337 0.753323 0.000000
v 0.003980 0.738207 0.000000
v 0.001871 0.734386 -0.021967
v 0.003980 0.738207 0.000000
v 0.009184 0.724266 0.024563
v -0.026119 0.726672 0.000000
v 0.009184 0.724266 0.024563
v -0.023360 0.710754 0.013009
v -0.026119 0.726672 0.000000
v 0.009184 0.724266 0.024563
v -0.005446 0.721368 0.046761
v -0.023360 0.710754 0.013009
v -0.005446 0.721368 0.046761
v -0.031445 0.708762 0.024475
v -0.023360 0.710754 0.013009
v -0.005446 0.721368 0.046761
v -0.032867 0.729356 0.056148
v -0.031445 0.708762 0.024475
v -0.032867 0.729356 0.056148
v -0.046428 0.722308 0.028085
v -0.031445 0.708762 0.024475
v -0.032867 0.729356 0.056148
v -0.060000 0.729634 0.060588
v -0.046428 0.722308 0.028085
v -0.060000 0.729634 0.060588
v -0.060000 0.723046 0.030169
v -0.046428 0.722308 0.028085
v -0.060000 0.729634 0.060588
v -0.086259 0.732277 0.054338
v -0.060000 0.723046 0.030169
v -0.086259 0.732277 0.054338
v -0.073919 0.719807 0.028804
v -0.060000 0.723046 0.030169
v -0.086259 0.732277 0.054338
v -0.107134 0.734783 0.040401
v -0.073919 0.719807 0.028804
v -0.107134 0.734783 0.040401
v -0.085476 0.720755 0.021837
v -0.073919 0.719807 0.028804
v -0.107134 0.734783 0.040401
v -0.130059 0.723056 0.024874
v -0.085476 0.720755 0.021837
v -0.130059 0.723056 0.024874
v -0.096293 0.711790 0.012885
v -0.085476 0.720755 0.021837
v -0.130059 0.723056 0.024874
v -0.138820 0.719235 0.000000
v -0.096293 0.711790 0.012885
v -0.138820 0.719235 0.000000
v -0.100038 0.709711 0.000000
v -0.096293 0.711790 0.012885
v -0.138820 0.719235 0.000000
v -0.122746 0.733176 -0.022277
v -0.100038 0.709711 0.000000
v -0.122746 0.733176 -0.022277
v -0.091652 0.725629 -0.011238
v -0.100038 0.709711 0.000000
v -0.122746 0.733176 -0.022277
v -0.106420 0.736074 -0.039789
v -0.091652 0.725629 -0.011238
v -0.106420 0.736074 -0.039789
v -0.083714 0.727620 -0.020326
v -0.091652 0.725629 -0.011238
v -0.106420 0.736074 -0.039789
v -0.087514 0.728086 -0.056935
v -0.083714 0.727620 -0.020326
v -0.087514 0.728086 -0.056935
v -0.074716 0.714075 -0.030451
v -0.083714 0.727620 -0.020326
v -0.087514 0.728086 -0.056935
v -0.060000 0.727808 -0.061812
v -0.074716 0.714075 -0.030451
v -0.060000 0.727808 -0.061812
v -0.060000 0.713337 -0.033190
v -0.074716 0.714075 -0.030451
v -0.060000 0.727808 -0.061812
v -0.031612 0.725164 -0.058744
v -0.060000 0.713337 -0.033190
v -0.031612 0.725164 -0.058744
v -0.045632 0.716576 -0.029732
v -0.060000 0.713337 -0.033190
v -0.031612 0.725164 -0.058744
v -0.006160 0.722659 -0.046149
v -0.045632 0.716576 -0.029732
v -0.006160 0.722659 -0.046149
v -0.033208 0.715627 -0.022965
v -0.045632 0.716576 -0.029732
v -0.006160 0.722659 -0.046149
v 0.001871 0.734386 -0.021967
v -0.033208 0.715627 -0.022965
v 0.001871 0.734386 -0.021967
v -0.028001 0.724593 -0.011361
v -0.033208 0.715627 -0.022965
v 0.001871 0.734386 -0.021967
v 0.003980 0.738207 0.000000
v -0.028001 0.724593 -0.011361
v 0.003980 0.738207 0.000000
v -0.026119 0.726672 0.000000
v -0.028001 0.724593 -0.011361
v 0.143947 0.719291 0.062500
v 0.215257 1.010692 0.062500
v 0.256053 1.000709 0.062500
v 0.143947 0.719291 0.062500
v 0.256053 1.000709 0.062500
v 0.184743 0.709308 0.062500
v 0.143947 0.719291 0.097500
v 0.184743 0.709308 0.097500
v 0.256053 1.000709 0.097500
v 0.143947 0.719291 0.097500
v 0.256053 1.000709 0.097500
v 0.215257 1.010692 0.097500
v 0.143947 0.719291 0.062500
v 0.143947 0.719291 0.097500
v 0.215257 1.010692 0.097500
v 0.143947 0.719291 0.062500
v 0.215257 1.010692 0.097500
v 0.215257 1.010692 0.062500
v 0.184743 0.709308 0.062500
v 0.256053 1.000709 0.062500
v 0.256053 1.000709 0.097500
v 0.184743 0.709308 0.062500
v 0.256053 1.000709 0.097500
v 0.184743 0.709308 0.097500
v 0.143947 0.719291 0.062500
v 0.184743 0.709308 0.062500
v 0.184743 0.709308 0.097500
v 0.143947 0.719291 0.062500
v 0.184743 0.709308 0.097500
v 0.143947 0.719291 0.097500
v 0.215257 1.010692 0.062500
v 0.215257 1.010692 0.097500
v 0.256053 1.000709 0.097500
v 0.215257 1.010692 0.062500
v 0.256053 1.000709 0.097500
v 0.256053 1.000709 0.062500
v -0.090000 0.717500 0.220000
v -0.090000 0.762500 0.220000
v 0.250000 0.762500 0.220000
v -0.090000 0.717500 0.220000
v 0.250000 0.762500 0.220000
v 0.250000 0.717500 0.220000
v -0.090000 0.717500 0.260000
v 0.250000 0.717500 0.260000
v 0.250000 0.762500 0.260000
v -0.090000 0.717500 0.260000
v 0.250000 0.762500 0.260000
v -0.090000 0.762500 0.260000
v -0.090000 0.717500 0.220000
v -0.090000 0.717500 0.260000
v -0.090000 0.762500 0.260000
v -0.090000 0.717500 0.220000
v -0.090000 0.762500 0.260000
v -0.090000 0.762500 0.220000
v 0.250000 0.717500 0.220000
v 0.250000 0.762500 0.220000
v 0.250000 0.762500 0.260000
v 0.250000 0.717500 0.220000
v 0.250000 0.762500 0.260000
v 0.250000 0.717500 0.260000
v -0.090000 0.717500 0.220000
v 0.250000 0.717500 0.220000
v 0.250000 0.717500 0.260000
v -0.090000 0.717500 0.220000
v 0.250000 0.717500 0.260000
v -0.090000 0.717500 0.260000
v -0.090000 0.762500 0.220000
v -0.090000 0.762500 0.260000
v 0.250000 0.762500 0.260000
v -0.090000 0.762500 0.220000
v 0.250000 0.762500 0.260000
v 0.250000 0.762500 0.220000
v -0.130000 0.720000 0.180000
v -0.130000 0.840000 0.180000
v 0.010000 0.840000 0.180000
v -0.130000 0.720000 0.180000
v 0.010000 0.840000 0.180000
v 0.010000 0.720000 0.180000
v -0.130000 0.720000 0.300000
v 0.010000 0.720000 0.300000
v 0.010000 0.840000 0.300000
v -0.130000 0.720000 0.300000
v 0.010000 0.840000 0.300000
v -0.130000 0.840000 0.300000
v -0.130000 0.720000 0.180000
v -0.130000 0.720000 0.300000
v -0.130000 0.840000 0.300000
v -0.130000 0.720000 0.180000
v -0.130000 0.840000 0.300000
v -0.130000 0.840000 0.180000
v 0.010000 0.720000 0.180000
v 0.010000 0.840000 0.180000
v 0.010000 0.840000 0.300000
v 0.010000 0.720000 0.180000
v 0.010000 0.840000 0.300000
v 0.010000 0.720000 0.300000
v -0.130000 0.720000 0.180000
v 0.010000 0.720000 0.180000
v 0.010000 0.720000 0.300000
v -0.130000 0.720000 0.180000
v 0.010000 0.720000 0.300000
v -0.130000 0.720000 0.300000
v -0.130000 0.840000 0.180000
v -0.130000 0.840000 0.300000
v 0.010000 0.840000 0.300000
v -0.130000 0.840000 0.180000
v 0.010000 0.840000 0.300000
v 0.010000 0.840000 0.180000
vt 0.005859 0.994141
vt 0.033203 0.994141
vt 0.019531 0.966797
vt 0.046875 0.994141
vt 0.074219 0.994141
vt 0.060547 0.966797
vt 0.087891 0.994141
vt 0.115234 0.994141
vt 0.101562 0.966797
vt 0.128906 0.994141
vt 0.156250 0.994141
vt 0.142578 0.966797
vt 0.169922 0.994141
vt 0.197266 0.994141
vt 0.183594 0.966797
vt 0.210938 0.994141
vt 0.238281 0.994141
vt 0.224609 0.966797
vt 0.251953 0.994141
vt 0.279297 0.994141
vt 0.265625 0.966797
vt 0.292969 0.994141
vt 0.320312 0.994141
vt 0.306641 0.966797
vt 0.333984 0.994141
vt 0.361328 0.994141
vt 0.347656 0.966797
vt 0.375000 0.994141
vt 0.402344 0.994141
vt 0.388672 0.966797
vt 0.416016 0.994141
vt 0.443359 0.994141
vt 0.429688 0.966797
vt 0.457031 0.994141
vt 0.484375 0.994141
vt 0.470703 0.966797
vt 0.498047 0.994141
vt 0.525391 0.994141
vt 0.511719 0.966797
vt 0.539062 0.994141
vt 0.566406 0.994141
vt 0.552734 0.966797
vt 0.580078 0.994141
vt 0.607422 0.994141
vt 0.593750 0.966797
vt 0.621094 0.994141
vt 0.648438 0.994141
vt 0.634766 0.966797
vt 0.662109 0.994141
vt 0.689453 0.994141
vt 0.675781 0.966797
vt 0.703125 0.994141
vt 0.730469 0.994141
vt 0.716797 0.966797
vt 0.744141 0.994141
vt 0.771484 0.994141
vt 0.757812 0.966797
vt 0.785156 0.994141
vt 0.812500 0.994141
vt 0.798828 0.966797
vt 0.826172 0.994141
vt 0.853516 0.994141
vt 0.839844 0.966797
vt 0.867188 0.994141
vt 0.894531 0.994141
vt 0.880859 0.966797
vt 0.908203 0.994141
vt 0.935547 0.994141
vt 0.921875 0.966797
vt 0.949219 0.994141
vt 0.976562 0.994141
vt 0.962891 0.966797
vt 0.005859 0.953125
vt 0.033203 0.953125
vt 0.019531 0.925781
vt 0.046875 0.953125
vt 0.074219 0.953125
vt 0.060547 0.925781
vt 0.087891 0.953125
vt 0.115234 0.953125
vt 0.101562 0.925781
vt 0.128906 0.953125
vt 0.156250 0.953125
vt 0.142578 0.925781
vt 0.169922 0.953125
vt 0.197266 0.953125
vt 0.183594 0.925781
vt 0.210938 0.953125
vt 0.238281 0.953125
vt 0.224609 0.925781
vt 0.251953 0.953125
vt 0.279297 0.953125
vt 0.265625 0.925781
vt 0.292969 0.953125
vt 0.320312 0.953125
vt 0.306641 0.925781
vt 0.333984 0.953125
vt 0.361328 0.953125
vt 0.347656 0.925781
vt 0.375000 0.953125
vt 0.402344 0.953125
vt 0.388672 0.925781
vt 0.416016 0.953125
vt 0.443359 0.953125
vt 0.429688 0.925781
vt 0.457031 0.953125
vt 0.484375 0.953125
vt 0.470703 0.925781
vt 0.498047 0.953125
vt 0.525391 0.953125
vt 0.511719 0.925781
vt 0.539062 0.953125
vt 0.566406 0.953125
vt 0.552734 0.925781
vt 0.580078 0.953125
vt 0.607422 0.953125
vt 0.593750 0.925781
vt 0.621094 0.953125
vt 0.648438 0.953125
vt 0.634766 0.925781
vt 0.662109 0.953125
vt 0.689453 0.953125
vt 0.675781 0.925781
vt 0.703125 0.953125
vt 0.730469 0.953125
vt 0.716797 0.925781
vt 0.744141 0.953125
vt 0.771484 0.953125
vt 0.757812 0.925781
vt 0.785156 0.953125
vt 0.812500 0.953125
vt 0.798828 0.925781
vt 0.826172 0.953125
vt 0.853516 0.953125
vt 0.839844 0.925781
vt 0.867188 0.953125
vt 0.894531 0.953125
vt 0.880859 0.925781
vt 0.908203 0.953125
vt 0.935547 0.953125
vt 0.921875 0.925781
vt 0.949219 0.953125
vt 0.976562 0.953125
vt 0.962891 0.925781
vt 0.005859 0.912109
vt 0.033203 0.912109
vt 0.019531 0.884766
vt 0.046875 0.912109
vt 0.074219 0.912109
vt 0.060547 0.884766
vt 0.087891 0.912109
vt 0.115234 0.912109
vt 0.101562 0.884766
vt 0.128906 0.912109
vt 0.156250 0.912109
vt 0.142578 0.884766
vt 0.169922 0.912109
vt 0.197266 0.912109
vt 0.183594 0.884766
vt 0.210938 0.912109
vt 0.238281 0.912109
vt 0.224609 0.884766
vt 0.251953 0.912109
vt 0.279297 0.912109
vt 0.265625 0.884766
vt 0.292969 0.912109
vt 0.320312 0.912109
vt 0.306641 0.884766
vt 0.333984 0.912109
vt 0.361328 0.912109
vt 0.347656 0.884766
vt 0.375000 0.912109
vt 0.402344 0.912109
vt 0.388672 0.884766
vt 0.416016 0.912109
vt 0.443359 0.912109
vt 0.429688 0.884766
vt 0.457031 0.912109
vt 0.484375 0.912109
vt 0.470703 0.884766
vt 0.498047 0.912109
vt 0.525391 0.912109
vt 0.511719 0.884766
vt 0.539062 0.912109
vt 0.566406 0.912109
vt 0.552734 0.884766
vt 0.580078 0.912109
vt 0.607422 0.912109
vt 0.593750 0.884766
vt 0.621094 0.912109
vt 0.648438 0.912109
vt 0.634766 0.884766
vt 0.662109 0.912109
vt 0.689453 0.912109
vt 0.675781 0.884766
vt 0.703125 0.912109
vt 0.730469 0.912109
vt 0.716797 0.884766
vt 0.744141 0.912109
vt 0.771484 0.912109
vt 0.757812 0.884766
vt 0.785156 0.912109
vt 0.812500 0.912109
vt 0.798828 0.884766
vt 0.826172 0.912109
vt 0.853516 0.912109
vt 0.839844 0.884766
vt 0.867188 0.912109
vt 0.894531 0.912109
vt 0.880859 0.884766
vt 0.908203 0.912109
vt 0.935547 0.912109
vt 0.921875 0.884766
vt 0.949219 0.912109
vt 0.976562 0.912109
vt 0.962891 0.884766
vt 0.005859 0.871094
vt 0.033203 0.871094
vt 0.019531 0.843750
vt 0.046875 0.871094
vt 0.074219 0.871094
vt 0.060547 0.843750
vt 0.087891 0.871094
vt 0.115234 0.871094
vt 0.101562 0.843750
vt 0.128906 0.871094
vt 0.156250 0.871094
vt 0.142578 0.843750
vt 0.169922 0.871094
vt 0.197266 0.871094
vt 0.183594 0.843750
vt 0.210938 0.871094
vt 0.238281 0.871094
vt 0.224609 0.843750
vt 0.251953 0.871094
vt 0.279297 0.871094
vt 0.265625 0.843750
vt 0.292969 0.871094
vt 0.320312 0.871094
vt 0.306641 0.843750
vt 0.333984 0.871094
vt 0.361328 0.871094
vt 0.347656 0.843750
vt 0.375000 0.871094
vt 0.402344 0.871094
vt 0.388672 0.843750
vt 0.416016 0.871094
vt 0.443359 0.871094
vt 0.429688 0.843750
vt 0.457031 0.871094
vt 0.484375 0.871094
vt 0.470703 0.843750
vt 0.498047 0.871094
vt 0.525391 0.871094
vt 0.511719 0.843750
vt 0.539062 0.871094
vt 0.566406 0.871094
vt 0.552734 0.843750
vt 0.580078 0.871094
vt 0.607422 0.871094
vt 0.593750 0.843750
vt 0.621094 0.871094
vt 0.648438 0.871094
vt 0.634766 0.843750
vt 0.662109 0.871094
vt 0.689453 0.871094
vt 0.675781 0.843750
vt 0.703125 0.871094
vt 0.730469 0.871094
vt 0.716797 0.843750
vt 0.744141 0.871094
vt 0.771484 0.871094
vt 0.757812 0.843750
vt 0.785156 0.871094
vt 0.812500 0.871094
vt 0.798828 0.843750
vt 0.826172 0.871094
vt 0.853516 0.871094
vt 0.839844 0.843750
vt 0.867188 0.871094
vt 0.894531 0.871094
vt 0.880859 0.843750
vt 0.908203 0.871094
vt 0.935547 0.871094
vt 0.921875 0.843750
vt 0.949219 0.871094
vt 0.976562 0.871094
vt 0.962891 0.843750
vt 0.005859 0.830078
vt 0.033203 0.830078
vt 0.019531 0.802734
vt 0.046875 0.830078
vt 0.074219 0.830078
vt 0.060547 0.802734
vt 0.087891 0.830078
vt 0.115234 0.830078
vt 0.101562 0.802734
vt 0.128906 0.830078
vt 0.156250 0.830078
vt 0.142578 0.802734
vt 0.169922 0.830078
vt 0.197266 0.830078
vt 0.183594 0.802734
vt 0.210938 0.830078
vt 0.238281 0.830078
vt 0.224609 0.802734
vt 0.251953 0.830078
vt 0.279297 0.830078
vt 0.265625 0.802734
vt 0.292969 0.830078
vt 0.320312 0.830078
vt 0.306641 0.802734
vt 0.333984 0.830078
vt 0.361328 0.830078
vt 0.347656 0.802734
vt 0.375000 0.830078
vt 0.402344 0.830078
vt 0.388672 0.802734
vt 0.416016 0.830078
vt 0.443359 0.830078
vt 0.429688 0.802734
vt 0.457031 0.830078
vt 0.484375 0.830078
vt 0.470703 0.802734
vt 0.498047 0.830078
vt 0.525391 0.830078
vt 0.511719 0.802734
vt 0.539062 0.830078
vt 0.566406 0.830078
vt 0.552734 0.802734
vt 0.580078 0.830078
vt 0.607422 0.830078
vt 0.593750 0.802734
vt 0.621094 0.830078
vt 0.648438 0.830078
vt 0.634766 0.802734
vt 0.662109 0.830078
vt 0.689453 0.830078
vt 0.675781 0.802734
vt 0.703125 0.830078
vt 0.730469 0.830078
vt 0.716797 0.802734
vt 0.744141 0.830078
vt 0.771484 0.830078
vt 0.757812 0.802734
vt 0.785156 0.830078
vt 0.812500 0.830078
vt 0.798828 0.802734
vt 0.826172 0.830078
vt 0.853516 0.830078
vt 0.839844 0.802734
vt 0.867188 0.830078
vt 0.894531 0.830078
vt 0.880859 0.802734
vt 0.908203 0.830078
vt 0.935547 0.830078
vt 0.921875 0.802734
vt 0.949219 0.830078
vt 0.976562 0.830078
vt 0.962891 0.802734
vt 0.005859 0.789062
vt 0.033203 0.789062
vt 0.019531 0.761719
vt 0.046875 0.789062
vt 0.074219 0.789062
vt 0.060547 0.761719
vt 0.087891 0.789062
vt 0.115234 0.789062
vt 0.101562 0.761719
vt 0.128906 0.789062
vt 0.156250 0.789062
vt 0.142578 0.761719
vt 0.169922 0.789062
vt 0.197266 0.789062
vt 0.183594 0.761719
vt 0.210938 0.789062
vt 0.238281 0.789062
vt 0.224609 0.761719
vt 0.251953 0.789062
vt 0.279297 0.789062
vt 0.265625 0.761719
vt 0.292969 0.789062
vt 0.320312 0.789062
vt 0.306641 0.761719
vt 0.333984 0.789062
vt 0.361328 0.789062
vt 0.347656 0.761719
vt 0.375000 0.789062
vt 0.402344 0.789062
vt 0.388672 0.761719
vt 0.416016 0.789062
vt 0.443359 0.789062
vt 0.429688 0.761719
vt 0.457031 0.789062
vt 0.484375 0.789062
vt 0.470703 0.761719
vt 0.498047 0.789062
vt 0.525391 0.789062
vt 0.511719 0.761719
vt 0.539062 0.789062
vt 0.566406 0.789062
vt 0.552734 0.761719
vt 0.580078 0.789062
vt 0.607422 0.789062
vt 0.593750 0.761719
vt 0.621094 0.789062
vt 0.648438 0.789062
vt 0.634766 0.761719
vt 0.662109 0.789062
vt 0.689453 0.789062
vt 0.675781 0.761719
vt 0.703125 0.789062
vt 0.730469 0.789062
vt 0.716797 0.761719
vt 0.744141 0.789062
vt 0.771484 0.789062
vt 0.757812 0.761719
vt 0.785156 0.789062
vt 0.812500 0.789062
vt 0.798828 0.761719
vt 0.826172 0.789062
vt 0.853516 0.789062
vt 0.839844 0.761719
vt 0.867188 0.789062
vt 0.894531 0.789062
vt 0.880859 0.761719
vt 0.908203 0.789062
vt 0.935547 0.789062
vt 0.921875 0.761719
vt 0.949219 0.789062
vt 0.976562 0.789062
vt 0.962891 0.761719
vt 0.005859 0.748047
vt 0.033203 0.748047
vt 0.019531 0.720703
vt 0.046875 0.748047
vt 0.074219 0.748047
vt 0.060547 0.720703
vt 0.087891 0.748047
vt 0.115234 0.748047
vt 0.101562 0.720703
vt 0.128906 0.748047
vt 0.156250 0.748047
vt 0.142578 0.720703
vt 0.169922 0.748047
vt 0.197266 0.748047
vt 0.183594 0.720703
vt 0.210938 0.748047
vt 0.238281 0.748047
vt 0.224609 0.720703
vt 0.251953 0.748047
vt 0.279297 0.748047
vt 0.265625 0.720703
vt 0.292969 0.748047
vt 0.320312 0.748047
vt 0.306641 0.720703
vt 0.333984 0.748047
vt 0.361328 0.748047
vt 0.347656 0.720703
vt 0.375000 0.748047
vt 0.402344 0.748047
vt 0.388672 0.720703
vt 0.416016 0.748047
vt 0.443359 0.748047
vt 0.429688 0.720703
vt 0.457031 0.748047
vt 0.484375 0.748047
vt 0.470703 0.720703
vt 0.498047 0.748047
vt 0.525391 0.748047
vt 0.511719 0.720703
vt 0.539062 0.748047
vt 0.566406 0.748047
vt 0.552734 0.720703
vt 0.580078 0.748047
vt 0.607422 0.748047
vt 0.593750 0.720703
vt 0.621094 0.748047
vt 0.648438 0.748047
vt 0.634766 0.720703
vt 0.662109 0.748047
vt 0.689453 0.748047
vt 0.675781 0.720703
vt 0.703125 0.748047
vt 0.730469 0.748047
vt 0.716797 0.720703
vt 0.744141 0.748047
vt 0.771484 0.748047
vt 0.757812 0.720703
vt 0.785156 0.748047
vt 0.812500 0.748047
vt 0.798828 0.720703
vt 0.826172 0.748047
vt 0.853516 0.748047
vt 0.839844 0.720703
vt 0.867188 0.748047
vt 0.894531 0.748047
vt 0.880859 0.720703
vt 0.908203 0.748047
vt 0.935547 0.748047
vt 0.921875 0.720703
vt 0.949219 0.748047
vt 0.976562 0.748047
vt 0.962891 0.720703
vt 0.005859 0.707031
vt 0.033203 0.707031
vt 0.019531 0.679688
vt 0.046875 0.707031
vt 0.074219 0.707031
vt 0.060547 0.679688
vt 0.087891 0.707031
vt 0.115234 0.707031
vt 0.101562 0.679688
vt 0.128906 0.707031
vt 0.156250 0.707031
vt 0.142578 0.679688
vt 0.169922 0.707031
vt 0.197266 0.707031
vt 0.183594 0.679688
vt 0.210938 0.707031
vt 0.238281 0.707031
vt 0.224609 0.679688
vt 0.251953 0.707031
vt 0.279297 0.707031
vt 0.265625 0.679688
vt 0.292969 0.707031
vt 0.320312 0.707031
vt 0.306641 0.679688
vt 0.333984 0.707031
vt 0.361328 0.707031
vt 0.347656 0.679688
vt 0.375000 0.707031
vt 0.402344 0.707031
vt 0.388672 0.679688
vt 0.416016 0.707031
vt 0.443359 0.707031
vt 0.429688 0.679688
vt 0.457031 0.707031
vt 0.484375 0.707031
vt 0.470703 0.679688
vt 0.498047 0.707031
vt 0.525391 0.707031
vt 0.511719 0.679688
vt 0.539062 0.707031
vt 0.566406 0.707031
vt 0.552734 0.679688
vt 0.580078 0.707031
vt 0.607422 0.707031
vt 0.593750 0.679688
vt 0.621094 0.707031
vt 0.648438 0.707031
vt 0.634766 0.679688
vt 0.662109 0.707031
vt 0.689453 0.707031
vt 0.675781 0.679688
vt 0.703125 0.707031
vt 0.730469 0.707031
vt 0.716797 0.679688
vt 0.744141 0.707031
vt 0.771484 0.707031
vt 0.757812 0.679688
vt 0.785156 0.707031
vt 0.812500 0.707031
vt 0.798828 0.679688
vt 0.826172 0.707031
vt 0.853516 0.707031
vt 0.839844 0.679688
vt 0.867188 0.707031
vt 0.894531 0.707031
vt 0.880859 0.679688
vt 0.908203 0.707031
vt 0.935547 0.707031
vt 0.921875 0.679688
vt 0.949219 0.707031
vt 0.976562 0.707031
vt 0.962891 0.679688
vt 0.005859 0.666016
vt 0.033203 0.666016
vt 0.019531 0.638672
vt 0.046875 0.666016
vt 0.074219 0.666016
vt 0.060547 0.638672
vt 0.087891 0.666016
vt 0.115234 0.666016
vt 0.101562 0.638672
vt 0.128906 0.666016
vt 0.156250 0.666016
vt 0.142578 0.638672
vt 0.169922 0.666016
vt 0.197266 0.666016
vt 0.183594 0.638672
vt 0.210938 0.666016
vt 0.238281 0.666016
vt 0.224609 0.638672
vt 0.251953 0.666016
vt 0.279297 0.666016
vt 0.265625 0.638672
vt 0.292969 0.666016
vt 0.320312 0.666016
vt 0.306641 0.638672
vt 0.333984 0.666016
vt 0.361328 0.666016
vt 0.347656 0.638672
vt 0.375000 0.666016
vt 0.402344 0.666016
vt 0.388672 0.638672
vt 0.416016 0.666016
vt 0.443359 0.666016
vt 0.429688 0.638672
vt 0.457031 0.666016
vt 0.484375 0.666016
vt 0.470703 0.638672
vt 0.498047 0.666016
vt 0.525391 0.666016
vt 0.511719 0.638672
vt 0.539062 0.666016
vt 0.566406 0.666016
vt 0.552734 0.638672
vt 0.580078 0.666016
vt 0.607422 0.666016
vt 0.593750 0.638672
vt 0.621094 0.666016
vt 0.648438 0.666016
vt 0.634766 0.638672
vt 0.662109 0.666016
vt 0.689453 0.666016
vt 0.675781 0.638672
vt 0.703125 0.666016
vt 0.730469 0.666016
vt 0.716797 0.638672
vt 0.744141 0.666016
vt 0.771484 0.666016
vt 0.757812 0.638672
vt 0.785156 0.666016
vt 0.812500 0.666016
vt 0.798828 0.638672
vt 0.826172 0.666016
vt 0.853516 0.666016
vt 0.839844 0.638672
vt 0.867188 0.666016
vt 0.894531 0.666016
vt 0.880859 0.638672
vt 0.908203 0.666016
vt 0.935547 0.666016
vt 0.921875 0.638672
vt 0.949219 0.666016
vt 0.976562 0.666016
vt 0.962891 0.638672
vt 0.005859 0.625000
vt 0.033203 0.625000
vt 0.019531 0.597656
vt 0.046875 0.625000
vt 0.074219 0.625000
vt 0.060547 0.597656
vt 0.087891 0.625000
vt 0.115234 0.625000
vt 0.101562 0.597656
vt 0.128906 0.625000
vt 0.156250 0.625000
vt 0.142578 0.597656
vt 0.169922 0.625000
vt 0.197266 0.625000
vt 0.183594 0.597656
vt 0.210938 0.625000
vt 0.238281 0.625000
vt 0.224609 0.597656
vt 0.251953 0.625000
vt 0.279297 0.625000
vt 0.265625 0.597656
vt 0.292969 0.625000
vt 0.320312 0.625000
vt 0.306641 0.597656
vt 0.333984 0.625000
vt 0.361328 0.625000
vt 0.347656 0.597656
vt 0.375000 0.625000
vt 0.402344 0.625000
vt 0.388672 0.597656
vt 0.416016 0.625000
vt 0.443359 0.625000
vt 0.429688 0.597656
vt 0.457031 0.625000
vt 0.484375 0.625000
vt 0.470703 0.597656
vt 0.498047 0.625000
vt 0.525391 0.625000
vt 0.511719 0.597656
vt 0.539062 0.625000
vt 0.566406 0.625000
vt 0.552734 0.597656
vt 0.580078 0.625000
vt 0.607422 0.625000
vt 0.593750 0.597656
vt 0.621094 0.625000
vt 0.648438 0.625000
vt 0.634766 0.597656
vt 0.662109 0.625000
vt 0.689453 0.625000
vt 0.675781 0.597656
vt 0.703125 0.625000
vt 0.730469 0.625000
vt 0.716797 0.597656
vt 0.744141 0.625000
vt 0.771484 0.625000
vt 0.757812 0.597656
vt 0.785156 0.625000
vt 0.812500 0.625000
vt 0.798828 0.597656
vt 0.826172 0.625000
vt 0.853516 0.625000
vt 0.839844 0.597656
vt 0.867188 0.625000
vt 0.894531 0.625000
vt 0.880859 0.597656
vt 0.908203 0.625000
vt 0.935547 0.625000
vt 0.921875 0.597656
vt 0.949219 0.625000
vt 0.976562 0.625000
vt 0.962891 0.597656
vt 0.005859 0.583984
vt 0.033203 0.583984
vt 0.019531 0.556641
vt 0.046875 0.583984
vt 0.074219 0.583984
vt 0.060547 0.556641
vt 0.087891 0.583984
vt 0.115234 0.583984
vt 0.101562 0.556641
vt 0.128906 0.583984
vt 0.156250 0.583984
vt 0.142578 0.556641
vt 0.169922 0.583984
vt 0.197266 0.583984
vt 0.183594 0.556641
vt 0.210938 0.583984
vt 0.238281 0.583984
vt 0.224609 0.556641
vt 0.251953 0.583984
vt 0.279297 0.583984
vt 0.265625 0.556641
vt 0.292969 0.583984
vt 0.320312 0.583984
vt 0.306641 0.556641
vt 0.333984 0.583984
vt 0.361328 0.583984
vt 0.347656 0.556641
vt 0.375000 0.583984
vt 0.402344 0.583984
vt 0.388672 0.556641
vt 0.416016 0.583984
vt 0.443359 0.583984
vt 0.429688 0.556641
vt 0.457031 0.583984
vt 0.484375 0.583984
vt 0.470703 0.556641
vt 0.498047 0.583984
vt 0.525391 0.583984
vt 0.511719 0.556641
vt 0.539062 0.583984
vt 0.566406 0.583984
vt 0.552734 0.556641
vt 0.580078 0.583984
vt 0.607422 0.583984
vt 0.593750 0.556641
vt 0.621094 0.583984
vt 0.648438 0.583984
vt 0.634766 0.556641
vt 0.662109 0.583984
vt 0.689453 0.583984
vt 0.675781 0.556641
vt 0.703125 0.583984
vt 0.730469 0.583984
vt 0.716797 0.556641
vt 0.744141 0.583984
vt 0.771484 0.583984
vt 0.757812 0.556641
vt 0.785156 0.583984
vt 0.812500 0.583984
vt 0.798828 0.556641
vt 0.826172 0.583984
vt 0.853516 0.583984
vt 0.839844 0.556641
vt 0.867188 0.583984
vt 0.894531 0.583984
vt 0.880859 0.556641
vt 0.908203 0.583984
vt 0.935547 0.583984
vt 0.921875 0.556641
vt 0.949219 0.583984
vt 0.976562 0.583984
vt 0.962891 0.556641
vt 0.005859 0.542969
vt 0.033203 0.542969
vt 0.019531 0.515625
vt 0.046875 0.542969
vt 0.074219 0.542969
vt 0.060547 0.515625
vt 0.087891 0.542969
vt 0.115234 0.542969
vt 0.101562 0.515625
vt 0.128906 0.542969
vt 0.156250 0.542969
vt 0.142578 0.515625
vt 0.169922 0.542969
vt 0.197266 0.542969
vt 0.183594 0.515625
vt 0.210938 0.542969
vt 0.238281 0.542969
vt 0.224609 0.515625
vt 0.251953 0.542969
vt 0.279297 0.542969
vt 0.265625 0.515625
vt 0.292969 0.542969
vt 0.320312 0.542969
vt 0.306641 0.515625
vt 0.333984 0.542969
vt 0.361328 0.542969
vt 0.347656 0.515625
vt 0.375000 0.542969
vt 0.402344 0.542969
vt 0.388672 0.515625
vt 0.416016 0.542969
vt 0.443359 0.542969
vt 0.429688 0.515625
vt 0.457031 0.542969
vt 0.484375 0.542969
vt 0.470703 0.515625
vt 0.498047 0.542969
vt 0.525391 0.542969
vt 0.511719 0.515625
vt 0.539062 0.542969
vt 0.566406 0.542969
vt 0.552734 0.515625
vt 0.580078 0.542969
vt 0.607422 0.542969
vt 0.593750 0.515625
vt 0.621094 0.542969
vt 0.648438 0.542969
vt 0.634766 0.515625
vt 0.662109 0.542969
vt 0.689453 0.542969
vt 0.675781 0.515625
vt 0.703125 0.542969
vt 0.730469 0.542969
vt 0.716797 0.515625
vt 0.744141 0.542969
vt 0.771484 0.542969
vt 0.757812 0.515625
vt 0.785156 0.542969
vt 0.812500 0.542969
vt 0.798828 0.515625
vt 0.826172 0.542969
vt 0.853516 0.542969
vt 0.839844 0.515625
vt 0.867188 0.542969
vt 0.894531 0.542969
vt 0.880859 0.515625
vt 0.908203 0.542969
vt 0.935547 0.542969
vt 0.921875 0.515625
vt 0.949219 0.542969
vt 0.976562 0.542969
vt 0.962891 0.515625
vt 0.005859 0.501953
vt 0.033203 0.501953
vt 0.019531 0.474609
vt 0.046875 0.501953
vt 0.074219 0.501953
vt 0.060547 0.474609
vt 0.087891 0.501953
vt 0.115234 0.501953
vt 0.101562 0.474609
vt 0.128906 0.501953
vt 0.156250 0.501953
vt 0.142578 0.474609
vt 0.169922 0.501953
vt 0.197266 0.501953
vt 0.183594 0.474609
vt 0.210938 0.501953
vt 0.238281 0.501953
vt 0.224609 0.474609
vt 0.251953 0.501953
vt 0.279297 0.501953
vt 0.265625 0.474609
vt 0.292969 0.501953
vt 0.320312 0.501953
vt 0.306641 0.474609
vt 0.333984 0.501953
vt 0.361328 0.501953
vt 0.347656 0.474609
vt 0.375000 0.501953
vt 0.402344 0.501953
vt 0.388672 0.474609
vt 0.416016 0.501953
vt 0.443359 0.501953
vt 0.429688 0.474609
vt 0.457031 0.501953
vt 0.484375 0.501953
vt 0.470703 0.474609
vt 0.498047 0.501953
vt 0.525391 0.501953
vt 0.511719 0.474609
vt 0.539062 0.501953
vt 0.566406 0.501953
vt 0.552734 0.474609
vt 0.580078 0.501953
vt 0.607422 0.501953
vt 0.593750 0.474609
vt 0.621094 0.501953
vt 0.648438 0.501953
vt 0.634766 0.474609
vt 0.662109 0.501953
vt 0.689453 0.501953
vt 0.675781 0.474609
vt 0.703125 0.501953
vt 0.730469 0.501953
vt 0.716797 0.474609
vt 0.744141 0.501953
vt 0.771484 0.501953
vt 0.757812 0.474609
vt 0.785156 0.501953
vt 0.812500 0.501953
vt 0.798828 0.474609
vt 0.826172 0.501953
vt 0.853516 0.501953
vt 0.839844 0.474609
vt 0.867188 0.501953
vt 0.894531 0.501953
vt 0.880859 0.474609
vt 0.908203 0.501953
vt 0.935547 0.501953
vt 0.921875 0.474609
vt 0.949219 0.501953
vt 0.976562 0.501953
vt 0.962891 0.474609
vt 0.005859 0.460938
vt 0.033203 0.460938
vt 0.019531 0.433594
vt 0.046875 0.460938
vt 0.074219 0.460938
vt 0.060547 0.433594
vt 0.087891 0.460938
vt 0.115234 0.460938
vt 0.101562 0.433594
vt 0.128906 0.460938
vt 0.156250 0.460938
vt 0.142578 0.433594
vt 0.169922 0.460938
vt 0.197266 0.460938
vt 0.183594 0.433594
vt 0.210938 0.460938
vt 0.238281 0.460938
vt 0.224609 0.433594
vt 0.251953 0.460938
vt 0.279297 0.460938
vt 0.265625 0.433594
vt 0.292969 0.460938
vt 0.320312 0.460938
vt 0.306641 0.433594
vt 0.333984 0.460938
vt 0.361328 0.460938
vt 0.347656 0.433594
vt 0.375000 0.460938
vt 0.402344 0.460938
vt 0.388672 0.433594
vt 0.416016 0.460938
vt 0.443359 0.460938
vt 0.429688 0.433594
vt 0.457031 0.460938
vt 0.484375 0.460938
vt 0.470703 0.433594
vt 0.498047 0.460938
vt 0.525391 0.460938
vt 0.511719 0.433594
vt 0.539062 0.460938
vt 0.566406 0.460938
vt 0.552734 0.433594
vt 0.580078 0.460938
vt 0.607422 0.460938
vt 0.593750 0.433594
vt 0.621094 0.460938
vt 0.648438 0.460938
vt 0.634766 0.433594
vt 0.662109 0.460938
vt 0.689453 0.460938
vt 0.675781 0.433594
vt 0.703125 0.460938
vt 0.730469 0.460938
vt 0.716797 0.433594
vt 0.744141 0.460938
vt 0.771484 0.460938
vt 0.757812 0.433594
vt 0.785156 0.460938
vt 0.812500 0.460938
vt 0.798828 0.433594
vt 0.826172 0.460938
vt 0.853516 0.460938
vt 0.839844 0.433594
vt 0.867188 0.460938
vt 0.894531 0.460938
vt 0.880859 0.433594
vt 0.908203 0.460938
vt 0.935547 0.460938
vt 0.921875 0.433594
vt 0.949219 0.460938
vt 0.976562 0.460938
vt 0.962891 0.433594
vt 0.005859 0.419922
vt 0.033203 0.419922
vt 0.019531 0.392578
vt 0.046875 0.419922
vt 0.074219 0.419922
vt 0.060547 0.392578
vt 0.087891 0.419922
vt 0.115234 0.419922
vt 0.101562 0.392578
vt 0.128906 0.419922
vt 0.156250 0.419922
vt 0.142578 0.392578
vt 0.169922 0.419922
vt 0.197266 0.419922
vt 0.183594 0.392578
vt 0.210938 0.419922
vt 0.238281 0.419922
vt 0.224609 0.392578
vt 0.251953 0.419922
vt 0.279297 0.419922
vt 0.265625 0.392578
vt 0.292969 0.419922
vt 0.320312 0.419922
vt 0.306641 0.392578
vt 0.333984 0.419922
vt 0.361328 0.419922
vt 0.347656 0.392578
vt 0.375000 0.419922
vt 0.402344 0.419922
vt 0.388672 0.392578
vt 0.416016 0.419922
vt 0.443359 0.419922
vt 0.429688 0.392578
vt 0.457031 0.419922
vt 0.484375 0.419922
vt 0.470703 0.392578
vt 0.498047 0.419922
vt 0.525391 0.419922
vt 0.511719 0.392578
vt 0.539062 0.419922
vt 0.566406 0.419922
vt 0.552734 0.392578
vt 0.580078 0.419922
vt 0.607422 0.419922
vt 0.593750 0.392578
vt 0.621094 0.419922
vt 0.648438 0.419922
vt 0.634766 0.392578
vt 0.662109 0.419922
vt 0.689453 0.419922
vt 0.675781 0.392578
vt 0.703125 0.419922
vt 0.730469 0.419922
vt 0.716797 0.392578
vt 0.744141 0.419922
vt 0.771484 0.419922
vt 0.757812 0.392578
vt 0.785156 0.419922
vt 0.812500 0.419922
vt 0.798828 0.392578
vt 0.826172 0.419922
vt 0.853516 0.419922
vt 0.839844 0.392578
vt 0.867188 0.419922
vt 0.894531 0.419922
vt 0.880859 0.392578
vt 0.908203 0.419922
vt 0.935547 0.419922
vt 0.921875 0.392578
vt 0.949219 0.419922
vt 0.976562 0.419922
vt 0.962891 0.392578
vt 0.005859 0.378906
vt 0.033203 0.378906
vt 0.019531 0.351562
vt 0.046875 0.378906
vt 0.074219 0.378906
vt 0.060547 0.351562
vt 0.087891 0.378906
vt 0.115234 0.378906
vt 0.101562 0.351562
vt 0.128906 0.378906
vt 0.156250 0.378906
vt 0.142578 0.351562
vt 0.169922 0.378906
vt 0.197266 0.378906
vt 0.183594 0.351562
vt 0.210938 0.378906
vt 0.238281 0.378906
vt 0.224609 0.351562
vt 0.251953 0.378906
vt 0.279297 0.378906
vt 0.265625 0.351562
vt 0.292969 0.378906
vt 0.320312 0.378906
vt 0.306641 0.351562
vt 0.333984 0.378906
vt 0.361328 0.378906
vt 0.347656 0.351562
vt 0.375000 0.378906
vt 0.402344 0.378906
vt 0.388672 0.351562
vt 0.416016 0.378906
vt 0.443359 0.378906
vt 0.429688 0.351562
vt 0.457031 0.378906
vt 0.484375 0.378906
vt 0.470703 0.351562
vt 0.498047 0.378906
vt 0.525391 0.378906
vt 0.511719 0.351562
vt 0.539062 0.378906
vt 0.566406 0.378906
vt 0.552734 0.351562
vt 0.580078 0.378906
vt 0.607422 0.378906
vt 0.593750 0.351562
vt 0.621094 0.378906
vt 0.648438 0.378906
vt 0.634766 0.351562
vt 0.662109 0.378906
vt 0.689453 0.378906
vt 0.675781 0.351562
vt 0.703125 0.378906
vt 0.730469 0.378906
vt 0.716797 0.351562
vt 0.744141 0.378906
vt 0.771484 0.378906
vt 0.757812 0.351562
vt 0.785156 0.378906
vt 0.812500 0.378906
vt 0.798828 0.351562
vt 0.826172 0.378906
vt 0.853516 0.378906
vt 0.839844 0.351562
vt 0.867188 0.378906
vt 0.894531 0.378906
vt 0.880859 0.351562
vt 0.908203 0.378906
vt 0.935547 0.378906
vt 0.921875 0.351562
vt 0.949219 0.378906
vt 0.976562 0.378906
vt 0.962891 0.351562
vt 0.005859 0.337891
vt 0.033203 0.337891
vt 0.019531 0.310547
vt 0.046875 0.337891
vt 0.074219 0.337891
vt 0.060547 0.310547
vt 0.087891 0.337891
vt 0.115234 0.337891
vt 0.101562 0.310547
vt 0.128906 0.337891
vt 0.156250 0.337891
vt 0.142578 0.310547
vt 0.169922 0.337891
vt 0.197266 0.337891
vt 0.183594 0.310547
vt 0.210938 0.337891
vt 0.238281 0.337891
vt 0.224609 0.310547
vt 0.251953 0.337891
vt 0.279297 0.337891
vt 0.265625 0.310547
vt 0.292969 0.337891
vt 0.320312 0.337891
vt 0.306641 0.310547
vt 0.333984 0.337891
vt 0.361328 0.337891
vt 0.347656 0.310547
vt 0.375000 0.337891
vt 0.402344 0.337891
vt 0.388672 0.310547
vt 0.416016 0.337891
vt 0.443359 0.337891
vt 0.429688 0.310547
vt 0.457031 0.337891
vt 0.484375 0.337891
vt 0.470703 0.310547
vt 0.498047 0.337891
vt 0.525391 0.337891
vt 0.511719 0.310547
vt 0.539062 0.337891
vt 0.566406 0.337891
vt 0.552734 0.310547
vt 0.580078 0.337891
vt 0.607422 0.337891
vt 0.593750 0.310547
vt 0.621094 0.337891
vt 0.648438 0.337891
vt 0.634766 0.310547
vt 0.662109 0.337891
vt 0.689453 0.337891
vt 0.675781 0.310547
vt 0.703125 0.337891
vt 0.730469 0.337891
vt 0.716797 0.310547
vt 0.744141 0.337891
vt 0.771484 0.337891
vt 0.757812 0.310547
vt 0.785156 0.337891
vt 0.812500 0.337891
vt 0.798828 0.310547
vt 0.826172 0.337891
vt 0.853516 0.337891
vt 0.839844 0.310547
vt 0.867188 0.337891
vt 0.894531 0.337891
vt 0.880859 0.310547
vt 0.908203 0.337891
vt 0.935547 0.337891
vt 0.921875 0.310547
vt 0.949219 0.337891
vt 0.976562 0.337891
vt 0.962891 0.310547
vt 0.005859 0.296875
vt 0.033203 0.296875
vt 0.019531 0.269531
vt 0.046875 0.296875
vt 0.074219 0.296875
vt 0.060547 0.269531
vt 0.087891 0.296875
vt 0.115234 0.296875
vt 0.101562 0.269531
vt 0.128906 0.296875
vt 0.156250 0.296875
vt 0.142578 0.269531
vt 0.169922 0.296875
vt 0.197266 0.296875
vt 0.183594 0.269531
vt 0.210938 0.296875
vt 0.238281 0.296875
vt 0.224609 0.269531
vt 0.251953 0.296875
vt 0.279297 0.296875
vt 0.265625 0.269531
vt 0.292969 0.296875
vt 0.320312 0.296875
vt 0.306641 0.269531
vt 0.333984 0.296875
vt 0.361328 0.296875
vt 0.347656 0.269531
vt 0.375000 0.296875
vt 0.402344 0.296875
vt 0.388672 0.269531
vt 0.416016 0.296875
vt 0.443359 0.296875
vt 0.429688 0.269531
vt 0.457031 0.296875
vt 0.484375 0.296875
vt 0.470703 0.269531
vt 0.498047 0.296875
vt 0.525391 0.296875
vt 0.511719 0.269531
vt 0.539062 0.296875
vt 0.566406 0.296875
vt 0.552734 0.269531
vt 0.580078 0.296875
vt 0.607422 0.296875
vt 0.593750 0.269531
vt 0.621094 0.296875
vt 0.648438 0.296875
vt 0.634766 0.269531
vt 0.662109 0.296875
vt 0.689453 0.296875
vt 0.675781 0.269531
vt 0.703125 0.296875
vt 0.730469 0.296875
vt 0.716797 0.269531
vt 0.744141 0.296875
vt 0.771484 0.296875
vt 0.757812 0.269531
vt 0.785156 0.296875
vt 0.812500 0.296875
vt 0.798828 0.269531
vt 0.826172 0.296875
vt 0.853516 0.296875
vt 0.839844 0.269531
vt 0.867188 0.296875
vt 0.894531 0.296875
vt 0.880859 0.269531
vt 0.908203 0.296875
vt 0.935547 0.296875
vt 0.921875 0.269531
vt 0.949219 0.296875
vt 0.976562 0.296875
vt 0.962891 0.269531
vt 0.005859 0.255859
vt 0.033203 0.255859
vt 0.019531 0.228516
vt 0.046875 0.255859
vt 0.074219 0.255859
vt 0.060547 0.228516
vt 0.087891 0.255859
vt 0.115234 0.255859
vt 0.101562 0.228516
vt 0.128906 0.255859
vt 0.156250 0.255859
vt 0.142578 0.228516
vt 0.169922 0.255859
vt 0.197266 0.255859
vt 0.183594 0.228516
vt 0.210938 0.255859
vt 0.238281 0.255859
vt 0.224609 0.228516
vt 0.251953 0.255859
vt 0.279297 0.255859
vt 0.265625 0.228516
vt 0.292969 0.255859
vt 0.320312 0.255859
vt 0.306641 0.228516
vt 0.333984 0.255859
vt 0.361328 0.255859
vt 0.347656 0.228516
vt 0.375000 0.255859
vt 0.402344 0.255859
vt 0.388672 0.228516
vt 0.416016 0.255859
vt 0.443359 0.255859
vt 0.429688 0.228516
vt 0.457031 0.255859
vt 0.484375 0.255859
vt 0.470703 0.228516
vt 0.498047 0.255859
vt 0.525391 0.255859
vt 0.511719 0.228516
vt 0.539062 0.255859
vt 0.566406 0.255859
vt 0.552734 0.228516
vt 0.580078 0.255859
vt 0.607422 0.255859
vt 0.593750 0.228516
vt 0.621094 0.255859
vt 0.648438 0.255859
vt 0.634766 0.228516
vt 0.662109 0.255859
vt 0.689453 0.255859
vt 0.675781 0.228516
vt 0.703125 0.255859
vt 0.730469 0.255859
vt 0.716797 0.228516
vt 0.744141 0.255859
vt 0.771484 0.255859
vt 0.757812 0.228516
vt 0.785156 0.255859
vt 0.812500 0.255859
vt 0.798828 0.228516
vt 0.826172 0.255859
vt 0.853516 0.255859
vt 0.839844 0.228516
vt 0.867188 0.255859
vt 0.894531 0.255859
vt 0.880859 0.228516
vt 0.908203 0.255859
vt 0.935547 0.255859
vt 0.921875 0.228516
vt 0.949219 0.255859
vt 0.976562 0.255859
vt 0.962891 0.228516
vt 0.005859 0.214844
vt 0.033203 0.214844
vt 0.019531 0.187500
vt 0.046875 0.214844
vt 0.074219 0.214844
vt 0.060547 0.187500
vt 0.087891 0.214844
vt 0.115234 0.214844
vt 0.101562 0.187500
vt 0.128906 0.214844
vt 0.156250 0.214844
vt 0.142578 0.187500
vt 0.169922 0.214844
vt 0.197266 0.214844
vt 0.183594 0.187500
vt 0.210938 0.214844
vt 0.238281 0.214844
vt 0.224609 0.187500
vt 0.251953 0.214844
vt 0.279297 0.214844
vt 0.265625 0.187500
vt 0.292969 0.214844
vt 0.320312 0.214844
vt 0.306641 0.187500
vt 0.333984 0.214844
vt 0.361328 0.214844
vt 0.347656 0.187500
vt 0.375000 0.214844
vt 0.402344 0.214844
vt 0.388672 0.187500
vt 0.416016 0.214844
vt 0.443359 0.214844
vt 0.429688 0.187500
vt 0.457031 0.214844
vt 0.484375 0.214844
vt 0.470703 0.187500
vt 0.498047 0.214844
vt 0.525391 0.214844
vt 0.511719 0.187500
vt 0.539062 0.214844
vt 0.566406 0.214844
vt 0.552734 0.187500
vt 0.580078 0.214844
vt 0.607422 0.214844
vt 0.593750 0.187500
vt 0.621094 0.214844
vt 0.648438 0.214844
vt 0.634766 0.187500
vt 0.662109 0.214844
vt 0.689453 0.214844
vt 0.675781 0.187500
vt 0.703125 0.214844
vt 0.730469 0.214844
vt 0.716797 0.187500
vt 0.744141 0.214844
vt 0.771484 0.214844
vt 0.757812 0.187500
vt 0.785156 0.214844
vt 0.812500 0.214844
vt 0.798828 0.187500
vt 0.826172 0.214844
vt 0.853516 0.214844
vt 0.839844 0.187500
vt 0.867188 0.214844
vt 0.894531 0.214844
vt 0.880859 0.187500
vt 0.908203 0.214844
vt 0.935547 0.214844
vt 0.921875 0.187500
vt 0.949219 0.214844
vt 0.976562 0.214844
vt 0.962891 0.187500
vt 0.005859 0.173828
vt 0.033203 0.173828
vt 0.019531 0.146484
vt 0.046875 0.173828
vt 0.074219 0.173828
vt 0.060547 0.146484
vt 0.087891 0.173828
vt 0.115234 0.173828
vt 0.101562 0.146484
vt 0.128906 0.173828
vt 0.156250 0.173828
vt 0.142578 0.146484
vt 0.169922 0.173828
vt 0.197266 0.173828
vt 0.183594 0.146484
vt 0.210938 0.173828
vt 0.238281 0.173828
vt 0.224609 0.146484
vt 0.251953 0.173828
vt 0.279297 0.173828
vt 0.265625 0.146484
vt 0.292969 0.173828
vt 0.320312 0.173828
vt 0.306641 0.146484
vt 0.333984 0.173828
vt 0.361328 0.173828
vt 0.347656 0.146484
vt 0.375000 0.173828
vt 0.402344 0.173828
vt 0.388672 0.146484
vt 0.416016 0.173828
vt 0.443359 0.173828
vt 0.429688 0.146484
vt 0.457031 0.173828
vt 0.484375 0.173828
vt 0.470703 0.146484
vt 0.498047 0.173828
vt 0.525391 0.173828
vt 0.511719 0.146484
vt 0.539062 0.173828
vt 0.566406 0.173828
vt 0.552734 0.146484
vt 0.580078 0.173828
vt 0.607422 0.173828
vt 0.593750 0.146484
vt 0.621094 0.173828
vt 0.648438 0.173828
vt 0.634766 0.146484
vt 0.662109 0.173828
vt 0.689453 0.173828
vt 0.675781 0.146484
vt 0.703125 0.173828
vt 0.730469 0.173828
vt 0.716797 0.146484
vt 0.744141 0.173828
vt 0.771484 0.173828
vt 0.757812 0.146484
vt 0.785156 0.173828
vt 0.812500 0.173828
vt 0.798828 0.146484
vt 0.826172 0.173828
vt 0.853516 0.173828
vt 0.839844 0.146484
vt 0.867188 0.173828
vt 0.894531 0.173828
vt 0.880859 0.146484
vt 0.908203 0.173828
vt 0.935547 0.173828
vt 0.921875 0.146484
vt 0.949219 0.173828
vt 0.976562 0.173828
vt 0.962891 0.146484
vt 0.005859 0.132812
vt 0.033203 0.132812
vt 0.019531 0.105469
vt 0.046875 0.132812
vt 0.074219 0.132812
vt 0.060547 0.105469
vt 0.087891 0.132812
vt 0.115234 0.132812
vt 0.101562 0.105469
vt 0.128906 0.132812
vt 0.156250 0.132812
vt 0.142578 0.105469
vt 0.169922 0.132812
vt 0.197266 0.132812
vt 0.183594 0.105469
vt 0.210938 0.132812
vt 0.238281 0.132812
vt 0.224609 0.105469
vt 0.251953 0.132812
vt 0.279297 0.132812
vt 0.265625 0.105469
vt 0.292969 0.132812
vt 0.320312 0.132812
vt 0.306641 0.105469
vt 0.333984 0.132812
vt 0.361328 0.132812
vt 0.347656 0.105469
vt 0.375000 0.132812
vt 0.402344 0.132812
vt 0.388672 0.105469
vt 0.416016 0.132812
vt 0.443359 0.132812
vt 0.429688 0.105469
vt 0.457031 0.132812
vt 0.484375 0.132812
vt 0.470703 0.105469
vt 0.498047 0.132812
vt 0.525391 0.132812
vt 0.511719 0.105469
vt 0.539062 0.132812
vt 0.566406 0.132812
vt 0.552734 0.105469
vt 0.580078 0.132812
vt 0.607422 0.132812
vt 0.593750 0.105469
vt 0.621094 0.132812
vt 0.648438 0.132812
vt 0.634766 0.105469
vt 0.662109 0.132812
vt 0.689453 0.132812
vt 0.675781 0.105469
vt 0.703125 0.132812
vt 0.730469 0.132812
vt 0.716797 0.105469
vt 0.744141 0.132812
vt 0.771484 0.132812
vt 0.757812 0.105469
vt 0.785156 0.132812
vt 0.812500 0.132812
vt 0.798828 0.105469
vt 0.826172 0.132812
vt 0.853516 0.132812
vt 0.839844 0.105469
vt 0.867188 0.132812
vt 0.894531 0.132812
vt 0.880859 0.105469
vt 0.908203 0.132812
vt 0.935547 0.132812
vt 0.921875 0.105469
vt 0.949219 0.132812
vt 0.976562 0.132812
vt 0.962891 0.105469
vt 0.005859 0.091797
vt 0.033203 0.091797
vt 0.019531 0.064453
vt 0.046875 0.091797
vt 0.074219 0.091797
vt 0.060547 0.064453
vt 0.087891 0.091797
vt 0.115234 0.091797
vt 0.101562 0.064453
vt 0.128906 0.091797
vt 0.156250 0.091797
vt 0.142578 0.064453
vt 0.169922 0.091797
vt 0.197266 0.091797
vt 0.183594 0.064453
vt 0.210938 0.091797
vt 0.238281 0.091797
vt 0.224609 0.064453
vt 0.251953 0.091797
vt 0.279297 0.091797
vt 0.265625 0.064453
vt 0.292969 0.091797
vt 0.320312 0.091797
vt 0.306641 0.064453
vt 0.333984 0.091797
vt 0.361328 0.091797
vt 0.347656 0.064453
vt 0.375000 0.091797
vt 0.402344 0.091797
vt 0.388672 0.064453
vt 0.416016 0.091797
vt 0.443359 0.091797
vt 0.429688 0.064453
vt 0.457031 0.091797
vt 0.484375 0.091797
vt 0.470703 0.064453
vt 0.498047 0.091797
vt 0.525391 0.091797
vt 0.511719 0.064453
vt 0.539062 0.091797
vt 0.566406 0.091797
vt 0.552734 0.064453
vt 0.580078 0.091797
vt 0.607422 0.091797
vt 0.593750 0.064453
vt 0.621094 0.091797
vt 0.648438 0.091797
vt 0.634766 0.064453
vt 0.662109 0.091797
vt 0.689453 0.091797
vt 0.675781 0.064453
vt 0.703125 0.091797
vt 0.730469 0.091797
vt 0.716797 0.064453
vt 0.744141 0.091797
vt 0.771484 0.091797
vt 0.757812 0.064453
vt 0.785156 0.091797
vt 0.812500 0.091797
vt 0.798828 0.064453
f 1/1 2/2 3/3
f 4/4 5/5 6/6
f 7/7 8/8 9/9
f 10/10 11/11 12/12
f 13/13 14/14 15/15
f 16/16 17/17 18/18
f 19/19 20/20 21/21
f 22/22 23/23 24/24
f 25/25 26/26 27/27
f 28/28 29/29 30/30
f 31/31 32/32 33/33
f 34/34 35/35 36/36
f 37/37 38/38 39/39
f 40/40 41/41 42/42
f 43/43 44/44 45/45
f 46/46 47/47 48/48
f 49/49 50/50 51/51
f 52/52 53/53 54/54
f 55/55 56/56 57/57
f 58/58 59/59 60/60
f 61/61 62/62 63/63
f 64/64 65/65 66/66
f 67/67 68/68 69/69
f 70/70 71/71 72/72
f 73/73 74/74 75/75
f 76/76 77/77 78/78
f 79/79 80/80 81/81
f 82/82 83/83 84/84
f 85/85 86/86 87/87
f 88/88 89/89 90/90
f 91/91 92/92 93/93
f 94/94 95/95 96/96
f 97/97 98/98 99/99
f 100/100 101/101 102/102
f 103/103 104/104 105/105
f 106/106 107/107 108/108
f 109/109 110/110 111/111
f 112/112 113/113 114/114
f 115/115 116/116 117/117
f 118/118 119/119 120/120
f 121/121 122/122 123/123
f 124/124 125/125 126/126
f 127/127 128/128 129/129
f 130/130 131/131 132/132
f 133/133 134/134 135/135
f 136/136 137/137 138/138
f 139/139 140/140 141/141
f 142/142 143/143 144/144
f 145/145 146/146 147/147
f 148/148 149/149 150/150
f 151/151 152/152 153/153
f 154/154 155/155 156/156
f 157/157 158/158 159/159
f 160/160 161/161 162/162
f 163/163 164/164 165/165
f 166/166 167/167 168/168
f 169/169 170/170 171/171
f 172/172 173/173 174/174
f 175/175 176/176 177/177
f 178/178 179/179 180/180
f 181/181 182/182 183/183
f 184/184 185/185 186/186
f 187/187 188/188 189/189
f 190/190 191/191 192/192
f 193/193 194/194 195/195
f 196/196 197/197 198/198
f 199/199 200/200 201/201
f 202/202 203/203 204/204
f 205/205 206/206 207/207
f 208/208 209/209 210/210
f 211/211 212/212 213/213
f 214/214 215/215 216/216
f 217/217 218/218 219/219
f 220/220 221/221 222/222
f 223/223 224/224 225/225
f 226/226 227/227 228/228
f 229/229 230/230 231/231
f 232/232 233/233 234/234
f 235/235 236/236 237/237
f 238/238 239/239 240/240
f 241/241 242/242 243/243
f 244/244 245/245 246/246
f 247/247 248/248 249/249
f 250/250 251/251 252/252
f 253/253 254/254 255/255
f 256/256 257/257 258/258
f 259/259 260/260 261/261
f 262/262 263/263 264/264
f 265/265 266/266 267/267
f 268/268 269/269 270/270
f 271/271 272/272 273/273
f 274/274 275/275 276/276
f 277/277 278/278 279/279
f 280/280 281/281 282/282
f 283/283 284/284 285/285
f 286/286 287/287 288/288
f 289/289 290/290 291/291
f 292/292 293/293 294/294
f 295/295 296/296 297/297
f 298/298 299/299 300/300
f 301/301 302/302 303/303
f 304/304 305/305 306/306
f 307/307 308/308 309/309
f 310/310 311/311 312/312
f 313/313 314/314 315/315
f 316/316 317/317 318/318
f 319/319 320/320 321/321
f 322/322 323/323 324/324
f 325/325 326/326 327/327
f 328/328 329/329 330/330
f 331/331 332/332 333/333
f 334/334 335/335 336/336
f 337/337 338/338 339/339
f 340/340 341/341 342/342
f 343/343 344/344 345/345
f 346/346 347/347 348/348
f 349/349 350/350 351/351
f 352/352 353/353 354/354
f 355/355 356/356 357/357
f 358/358 359/359 360/360
f 361/361 362/362 363/363
f 364/364 365/365 366/366
f 367/367 368/368 369/369
f 370/370 371/371 372/372
f 373/373 374/374 375/375
f 376/376 377/377 378/378
f 379/379 380/380 381/381
f 382/382 383/383 384/384
f 385/385 386/386 387/387
f 388/388 389/389 390/390
f 391/391 392/392 393/393
f 394/394 395/395 396/396
f 397/397 398/398 399/399
f 400/400 401/401 402/402
f 403/403 404/404 405/405
f 406/406 407/407 408/408
f 409/409 410/410 411/411
f 412/412 413/413 414/414
f 415/415 416/416 417/417
f 418/418 419/419 420/420
f 421/421 422/422 423/423
f 424/424 425/425 426/426
f 427/427 428/428 429/429
f 430/430 431/431 432/432
f 433/433 434/434 435/435
f 436/436 437/437 438/438
f 439/439 440/440 441/441
f 442/442 443/443 444/444
f 445/445 446/446 447/447
f 448/448 449/449 450/450
f 451/451 452/452 453/453
f 454/454 455/455 456/456
f 457/457 458/458 459/459
f 460/460 461/461 462/462
f 463/463 464/464 465/465
f 466/466 467/467 468/468
f 469/469 470/470 471/471
f 472/472 473/473 474/474
f 475/475 476/476 477/477
f 478/478 479/479 480/480
f 481/481 482/482 483/483
f 484/484 485/485 486/486
f 487/487 488/488 489/489
f 490/490 491/491 492/492
f 493/493 494/494 495/495
f 496/496 497/497 498/498
f 499/499 500/500 501/501
f 502/502 503/503 504/504
f 505/505 506/506 507/507
f 508/508 509/509 510/510
f 511/511 512/512 513/513
f 514/514 515/515 516/516
f 517/517 518/518 519/519
f 520/520 521/521 522/522
f 523/523 524/524 525/525
f 526/526 527/527 528/528
f 529/529 530/530 531/531
f 532/532 533/533 534/534
f 535/535 536/536 537/537
f 538/538 539/539 540/540
f 541/541 542/542 543/543
f 544/544 545/545 546/546
f 547/547 548/548 549/549
f 550/550 551/551 552/552
f 553/553 554/554 555/555
f 556/556 557/557 558/558
f 559/559 560/560 561/561
f 562/562 563/563 564/564
f 565/565 566/566 567/567
f 568/568 569/569 570/570
f 571/571 572/572 573/573
f 574/574 575/575 576/576
f 577/577 578/578 579/579
f 580/580 581/581 582/582
f 583/583 584/584 585/585
f 586/586 587/587 588/588
f 589/589 590/590 591/591
f 592/592 593/593 594/594
f 595/595 596/596 597/597
f 598/598 599/599 600/600
f 601/601 602/602 603/603
f 604/604 605/605 606/606
f 607/607 608/608 609/609
f 610/610 611/611 612/612
f 613/613 614/614 615/615
f 616/616 617/617 618/618
f 619/619 620/620 621/621
f 622/622 623/623 624/624
f 625/625 626/626 627/627
f 628/628 629/629 630/630
f 631/631 632/632 633/633
f 634/634 635/635 636/636
f 637/637 638/638 639/639
f 640/640 641/641 642/642
f 643/643 644/644 645/645
f 646/646 647/647 648/648
f 649/649 650/650 651/651
f 652/652 653/653 654/654
f 655/655 656/656 657/657
f 658/658 659/659 660/660
f 661/661 662/662 663/663
f 664/664 665/665 666/666
f 667/667 668/668 669/669
f 670/670 671/671 672/672
f 673/673 674/674 675/675
f 676/676 677/677 678/678
f 679/679 680/680 681/681
f 682/682 683/683 684/684
f 685/685 686/686 687/687
f 688/688 689/689 690/690
f 691/691 692/692 693/693
f 694/694 695/695 696/696
f 697/697 698/698 699/699
f 700/700 701/701 702/702
f 703/703 704/704 705/705
f 706/706 707/707 708/708
f 709/709 710/710 711/711
f 712/712 713/713 714/714
f 715/715 716/716 717/717
f 718/718 719/719 720/720
f 721/721 722/722 723/723
f 724/724 725/725 726/726
f 727/727 728/728 729/729
f 730/730 731/731 732/732
f 733/733 734/734 735/735
f 736/736 737/737 738/738
f 739/739 740/740 741/741
f 742/742 743/743 744/744
f 745/745 746/746 747/747
f 748/748 749/749 750/750
f 751/751 752/752 753/753
f 754/754 755/755 756/756
f 757/757 758/758 759/759
f 760/760 761/761 762/762
f 763/763 764/764 765/765
f 766/766 767/767 768/768
f 769/769 770/770 771/771
f 772/772 773/773 774/774
f 775/775 776/776 777/777
f 778/778 779/779 780/780
f 781/781 782/782 783/783
f 784/784 785/785 786/786
f 787/787 788/788 789/789
f 790/790 791/791 792/792
f 793/793 794/794 795/795
f 796/796 797/797 798/798
f 799/799 800/800 801/801
f 802/802 803/803 804/804
f 805/805 806/806 807/807
f 808/808 809/809 810/810
f 811/811 812/812 813/813
f 814/814 815/815 816/816
f 817/817 818/818 819/819
f 820/820 821/821 822/822
f 823/823 824/824 825/825
f 826/826 827/827 828/828
f 829/829 830/830 831/831
f 832/832 833/833 834/834
f 835/835 836/836 837/837
f 838/838 839/839 840/840
f 841/841 842/842 843/843
f 844/844 845/845 846/846
f 847/847 848/848 849/849
f 850/850 851/851 852/852
f 853/853 854/854 855/855
f 856/856 857/857 858/858
f 859/859 860/860 861/861
f 862/862 863/863 864/864
f 865/865 866/866 867/867
f 868/868 869/869 870/870
f 871/871 872/872 873/873
f 874/874 875/875 876/876
f 877/877 878/878 879/879
f 880/880 881/881 882/882
f 883/883 884/884 885/885
f 886/886 887/887 888/888
f 889/889 890/890 891/891
f 892/892 893/893 894/894
f 895/895 896/896 897/897
f 898/898 899/899 900/900
f 901/901 902/902 903/903
f 904/904 905/905 906/906
f 907/907 908/908 909/909
f 910/910 911/911 912/912
f 913/913 914/914 915/915
f 916/916 917/917 918/918
f 919/919 920/920 921/921
f 922/922 923/923 924/924
f 925/925 926/926 927/927
f 928/928 929/929 930/930
f 931/931 932/932 933/933
f 934/934 935/935 936/936
f 937/937 938/938 939/939
f 940/940 941/941 942/942
f 943/943 944/944 945/945
f 946/946 947/947 948/948
f 949/949 950/950 951/951
f 952/952 953/953 954/954
f 955/955 956/956 957/957
f 958/958 959/959 960/960
f 961/961 962/962 963/963
f 964/964 965/965 966/966
f 967/967 968/968 969/969
f 970/970 971/971 972/972
f 973/973 974/974 975/975
f 976/976 977/977 978/978
f 979/979 980/980 981/981
f 982/982 983/983 984/984
f 985/985 986/986 987/987
f 988/988 989/989 990/990
f 991/991 992/992 993/993
f 994/994 995/995 996/996
f 997/997 998/998 999/999
f 1000/1000 1001/1001 1002/1002
f 1003/1003 1004/1004 1005/1005
f 1006/1006 1007/1007 1008/1008
f 1009/1009 1010/1010 1011/1011
f 1012/1012 1013/1013 1014/1014
f 1015/1015 1016/1016 1017/1017
f 1018/1018 1019/1019 1020/1020
f 1021/1021 1022/1022 1023/1023
f 1024/1024 1025/1025 1026/1026
f 1027/1027 1028/1028 1029/1029
f 1030/1030 1031/1031 1032/1032
f 1033/1033 1034/1034 1035/1035
f 1036/1036 1037/1037 1038/1038
f 1039/1039 1040/1040 1041/1041
f 1042/1042 1043/1043 1044/1044
f 1045/1045 1046/1046 1047/1047
f 1048/1048 1049/1049 1050/1050
f 1051/1051 1052/1052 1053/1053
f 1054/1054 1055/1055 1056/1056
f 1057/1057 1058/1058 1059/1059
f 1060/1060 1061/1061 1062/1062
f 1063/1063 1064/1064 1065/1065
f 1066/1066 1067/1067 1068/1068
f 1069/1069 1070/1070 1071/1071
f 1072/1072 1073/1073 1074/1074
f 1075/1075 1076/1076 1077/1077
f 1078/1078 1079/1079 1080/1080
f 1081/1081 1082/1082 1083/1083
f 1084/1084 1085/1085 1086/1086
f 1087/1087 1088/1088 1089/1089
f 1090/1090 1091/1091 1092/1092
f 1093/1093 1094/1094 1095/1095
f 1096/1096 1097/1097 1098/1098
f 1099/1099 1100/1100 1101/1101
f 1102/1102 1103/1103 1104/1104
f 1105/1105 1106/1106 1107/1107
f 1108/1108 1109/1109 1110/1110
f 1111/1111 1112/1112 1113/1113
f 1114/1114 1115/1115 1116/1116
f 1117/1117 1118/1118 1119/1119
f 1120/1120 1121/1121 1122/1122
f 1123/1123 1124/1124 1125/1125
f 1126/1126 1127/1127 1128/1128
f 1129/1129 1130/1130 1131/1131
f 1132/1132 1133/1133 1134/1134
f 1135/1135 1136/1136 1137/1137
f 1138/1138 1139/1139 1140/1140
f 1141/1141 1142/1142 1143/1143
f 1144/1144 1145/1145 1146/1146
f 1147/1147 1148/1148 1149/1149
f 1150/1150 1151/1151 1152/1152
f 1153/1153 1154/1154 1155/1155
f 1156/1156 1157/1157 1158/1158
f 1159/1159 1160/1160 1161/1161
f 1162/1162 1163/1163 1164/1164
f 1165/1165 1166/1166 1167/1167
f 1168/1168 1169/1169 1170/1170
f 1171/1171 1172/1172 1173/1173
f 1174/1174 1175/1175 1176/1176
f 1177/1177 1178/1178 1179/1179
f 1180/1180 1181/1181 1182/1182
f 1183/1183 1184/1184 1185/1185
f 1186/1186 1187/1187 1188/1188
f 1189/1189 1190/1190 1191/1191
f 1192/1192 1193/1193 1194/1194
f 1195/1195 1196/1196 1197/1197
f 1198/1198 1199/1199 1200/1200
f 1201/1201 1202/1202 1203/1203
f 1204/1204 1205/1205 1206/1206
f 1207/1207 1208/1208 1209/1209
f 1210/1210 1211/1211 1212/1212
f 1213/1213 1214/1214 1215/1215
f 1216/1216 1217/1217 1218/1218
f 1219/1219 1220/1220 1221/1221
f 1222/1222 1223/1223 1224/1224
f 1225/1225 1226/1226 1227/1227
f 1228/1228 1229/1229 1230/1230
f 1231/1231 1232/1232 1233/1233
f 1234/1234 1235/1235 1236/1236
f 1237/1237 1238/1238 1239/1239
f 1240/1240 1241/1241 1242/1242
f 1243/1243 1244/1244 1245/1245
f 1246/1246 1247/1247 1248/1248
f 1249/1249 1250/1250 1251/1251
f 1252/1252 1253/1253 1254/1254
f 1255/1255 1256/1256 1257/1257
f 1258/1258 1259/1259 1260/1260
f 1261/1261 1262/1262 1263/1263
f 1264/1264 1265/1265 1266/1266
f 1267/1267 1268/1268 1269/1269
f 1270/1270 1271/1271 1272/1272
f 1273/1273 1274/1274 1275/1275
f 1276/1276 1277/1277 1278/1278
f 1279/1279 1280/1280 1281/1281
f 1282/1282 1283/1283 1284/1284
f 1285/1285 1286/1286 1287/1287
f 1288/1288 1289/1289 1290/1290
f 1291/1291 1292/1292 1293/1293
f 1294/1294 1295/1295 1296/1296
f 1297/1297 1298/1298 1299/1299
f 1300/1300 1301/1301 1302/1302
f 1303/1303 1304/1304 1305/1305
f 1306/1306 1307/1307 1308/1308
f 1309/1309 1310/1310 1311/1311
f 1312/1312 1313/1313 1314/1314
f 1315/1315 1316/1316 1317/1317
f 1318/1318 1319/1319 1320/1320
f 1321/1321 1322/1322 1323/1323
f 1324/1324 1325/1325 1326/1326
f 1327/1327 1328/1328 1329/1329
f 1330/1330 1331/1331 1332/1332
f 1333/1333 1334/1334 1335/1335
f 1336/1336 1337/1337 1338/1338
f 1339/1339 1340/1340 1341/1341
f 1342/1342 1343/1343 1344/1344
f 1345/1345 1346/1346 1347/1347
f 1348/1348 1349/1349 1350/1350
f 1351/1351 1352/1352 1353/1353
f 1354/1354 1355/1355 1356/1356
f 1357/1357 1358/1358 1359/1359
f 1360/1360 1361/1361 1362/1362
f 1363/1363 1364/1364 1365/1365
f 1366/1366 1367/1367 1368/1368
f 1369/1369 1370/1370 1371/1371
f 1372/1372 1373/1373 1374/1374
f 1375/1375 1376/1376 1377/1377
f 1378/1378 1379/1379 1380/1380
f 1381/1381 1382/1382 1383/1383
f 1384/1384 1385/1385 1386/1386
f 1387/1387 1388/1388 1389/1389
f 1390/1390 1391/1391 1392/1392
f 1393/1393 1394/1394 1395/1395
f 1396/1396 1397/1397 1398/1398
f 1399/1399 1400/1400 1401/1401
f 1402/1402 1403/1403 1404/1404
f 1405/1405 1406/1406 1407/1407
f 1408/1408 1409/1409 1410/1410
f 1411/1411 1412/1412 1413/1413
f 1414/1414 1415/1415 1416/1416
f 1417/1417 1418/1418 1419/1419
f 1420/1420 1421/1421 1422/1422
f 1423/1423 1424/1424 1425/1425
f 1426/1426 1427/1427 1428/1428
f 1429/1429 1430/1430 1431/1431
f 1432/1432 1433/1433 1434/1434
f 1435/1435 1436/1436 1437/1437
f 1438/1438 1439/1439 1440/1440
f 1441/1441 1442/1442 1443/1443
f 1444/1444 1445/1445 1446/1446
f 1447/1447 1448/1448 1449/1449
f 1450/1450 1451/1451 1452/1452
f 1453/1453 1454/1454 1455/1455
f 1456/1456 1457/1457 1458/1458
f 1459/1459 1460/1460 1461/1461
f 1462/1462 1463/1463 1464/1464
f 1465/1465 1466/1466 1467/1467
f 1468/1468 1469/1469 1470/1470
f 1471/1471 1472/1472 1473/1473
f 1474/1474 1475/1475 1476/1476
f 1477/1477 1478/1478 1479/1479
f 1480/1480 1481/1481 1482/1482
f 1483/1483 1484/1484 1485/1485
f 1486/1486 1487/1487 1488/1488
f 1489/1489 1490/1490 1491/1491
f 1492/1492 1493/1493 1494/1494
f 1495/1495 1496/1496 1497/1497
f 1498/1498 1499/1499 1500/1500
f 1501/1501 1502/1502 1503/1503
f 1504/1504 1505/1505 1506/1506
f 1507/1507 1508/1508 1509/1509
f 1510/1510 1511/1511 1512/1512
f 1513/1513 1514/1514 1515/1515
f 1516/1516 1517/1517 1518/1518
f 1519/1519 1520/1520 1521/1521
f 1522/1522 1523/1523 1524/1524
f 1525/1525 1526/1526 1527/1527
f 1528/1528 1529/1529 1530/1530
f 1531/1531 1532/1532 1533/1533
f 1534/1534 1535/1535 1536/1536
f 1537/1537 1538/1538 1539/1539
f 1540/1540 1541/1541 1542/1542
f 1543/1543 1544/1544 1545/1545
f 1546/1546 1547/1547 1548/1548
f 1549/1549 1550/1550 1551/1551
f 1552/1552 1553/1553 1554/1554
f 1555/1555 1556/1556 1557/1557
f 1558/1558 1559/1559 1560/1560
f 1561/1561 1562/1562 1563/1563
f 1564/1564 1565/1565 1566/1566
f 1567/1567 1568/1568 1569/1569
f 1570/1570 1571/1571 1572/1572
f 1573/1573 1574/1574 1575/1575
f 1576/1576 1577/1577 1578/1578
f 1579/1579 1580/1580 1581/1581
f 1582/1582 1583/1583 1584/1584
f 1585/1585 1586/1586 1587/1587
f 1588/1588 1589/1589 1590/1590
f 1591/1591 1592/1592 1593/1593
f 1594/1594 1595/1595 1596/1596
f 1597/1597 1598/1598 1599/1599
f 1600/1600 1601/1601 1602/1602
f 1603/1603 1604/1604 1605/1605
f 1606/1606 1607/1607 1608/1608
f 1609/1609 1610/1610 1611/1611
f 1612/1612 1613/1613 1614/1614
f 1615/1615 1616/1616 1617/1617
f 1618/1618 1619/1619 1620/1620
f 1621/1621 1622/1622 1623/1623
f 1624/1624 1625/1625 1626/1626
f 1627/1627 1628/1628 1629/1629
f 1630/1630 1631/1631 1632/1632
f 1633/1633 1634/1634 1635/1635
f 1636/1636 1637/1637 1638/1638
f 1639/1639 1640/1640 1641/1641
f 1642/1642 1643/1643 1644/1644
