# Original Magenheim Earth asset; meters; Y up
mtllib rough.mtl
usemtl rough
v -0.045000 -0.133100 0.000000
v 0.004680 -0.116000 0.000000
v -0.020160 -0.116000 0.043024
v 0.002572 0.041700 0.001904
v -0.036720 0.098700 0.000000
v -0.022863 0.041700 0.042150
v 0.004680 -0.116000 0.000000
v 0.024000 0.003700 0.000000
v -0.020160 -0.116000 0.043024
v -0.020160 -0.116000 0.043024
v 0.024000 0.003700 0.000000
v -0.010500 0.003700 0.059756
v 0.024000 0.003700 0.000000
v 0.002572 0.041700 0.001904
v -0.010500 0.003700 0.059756
v -0.010500 0.003700 0.059756
v 0.002572 0.041700 0.001904
v -0.022863 0.041700 0.042150
v -0.045000 -0.133100 0.000000
v -0.020160 -0.116000 0.043024
v -0.069840 -0.116000 0.043024
v -0.022863 0.041700 0.042150
v -0.036720 0.098700 0.000000
v -0.070435 0.041700 0.040247
v -0.020160 -0.116000 0.043024
v -0.010500 0.003700 0.059756
v -0.069840 -0.116000 0.043024
v -0.069840 -0.116000 0.043024
v -0.010500 0.003700 0.059756
v -0.079500 0.003700 0.059756
v -0.010500 0.003700 0.059756
v -0.022863 0.041700 0.042150
v -0.079500 0.003700 0.059756
v -0.079500 0.003700 0.059756
v -0.022863 0.041700 0.042150
v -0.070435 0.041700 0.040247
v -0.045000 -0.133100 0.000000
v -0.069840 -0.116000 0.043024
v -0.094680 -0.116000 0.000000
v -0.070435 0.041700 0.040247
v -0.036720 0.098700 0.000000
v -0.092572 0.041700 -0.001904
v -0.069840 -0.116000 0.043024
v -0.079500 0.003700 0.059756
v -0.094680 -0.116000 0.000000
v -0.094680 -0.116000 0.000000
v -0.079500 0.003700 0.059756
v -0.114000 0.003700 0.000000
v -0.079500 0.003700 0.059756
v -0.070435 0.041700 0.040247
v -0.114000 0.003700 0.000000
v -0.114000 0.003700 0.000000
v -0.070435 0.041700 0.040247
v -0.092572 0.041700 -0.001904
v -0.045000 -0.133100 0.000000
v -0.094680 -0.116000 0.000000
v -0.069840 -0.116000 -0.043024
v -0.092572 0.041700 -0.001904
v -0.036720 0.098700 0.000000
v -0.067137 0.041700 -0.042150
v -0.094680 -0.116000 0.000000
v -0.114000 0.003700 0.000000
v -0.069840 -0.116000 -0.043024
v -0.069840 -0.116000 -0.043024
v -0.114000 0.003700 0.000000
v -0.079500 0.003700 -0.059756
v -0.114000 0.003700 0.000000
v -0.092572 0.041700 -0.001904
v -0.079500 0.003700 -0.059756
v -0.079500 0.003700 -0.059756
v -0.092572 0.041700 -0.001904
v -0.067137 0.041700 -0.042150
v -0.045000 -0.133100 0.000000
v -0.069840 -0.116000 -0.043024
v -0.020160 -0.116000 -0.043024
v -0.067137 0.041700 -0.042150
v -0.036720 0.098700 0.000000
v -0.019565 0.041700 -0.040247
v -0.069840 -0.116000 -0.043024
v -0.079500 0.003700 -0.059756
v -0.020160 -0.116000 -0.043024
v -0.020160 -0.116000 -0.043024
v -0.079500 0.003700 -0.059756
v -0.010500 0.003700 -0.059756
v -0.079500 0.003700 -0.059756
v -0.067137 0.041700 -0.042150
v -0.010500 0.003700 -0.059756
v -0.010500 0.003700 -0.059756
v -0.067137 0.041700 -0.042150
v -0.019565 0.041700 -0.040247
v -0.045000 -0.133100 0.000000
v -0.020160 -0.116000 -0.043024
v 0.004680 -0.116000 0.000000
v -0.019565 0.041700 -0.040247
v -0.036720 0.098700 0.000000
v 0.002572 0.041700 0.001904
v -0.020160 -0.116000 -0.043024
v -0.010500 0.003700 -0.059756
v 0.004680 -0.116000 0.000000
v 0.004680 -0.116000 0.000000
v -0.010500 0.003700 -0.059756
v 0.024000 0.003700 0.000000
v -0.010500 0.003700 -0.059756
v -0.019565 0.041700 -0.040247
v 0.024000 0.003700 0.000000
v 0.024000 0.003700 0.000000
v -0.019565 0.041700 -0.040247
v 0.002572 0.041700 0.001904
v 0.065000 -0.142800 0.035000
v 0.108200 -0.123000 0.035000
v 0.086600 -0.123000 0.072412
v 0.106367 0.059600 0.036656
v 0.072200 0.125600 0.035000
v 0.084250 0.059600 0.071653
v 0.108200 -0.123000 0.035000
v 0.125000 0.015600 0.035000
v 0.086600 -0.123000 0.072412
v 0.086600 -0.123000 0.072412
v 0.125000 0.015600 0.035000
v 0.095000 0.015600 0.086962
v 0.125000 0.015600 0.035000
v 0.106367 0.059600 0.036656
v 0.095000 0.015600 0.086962
v 0.095000 0.015600 0.086962
v 0.106367 0.059600 0.036656
v 0.084250 0.059600 0.071653
v 0.065000 -0.142800 0.035000
v 0.086600 -0.123000 0.072412
v 0.043400 -0.123000 0.072412
v 0.084250 0.059600 0.071653
v 0.072200 0.125600 0.035000
v 0.042883 0.059600 0.069997
v 0.086600 -0.123000 0.072412
v 0.095000 0.015600 0.086962
v 0.043400 -0.123000 0.072412
v 0.043400 -0.123000 0.072412
v 0.095000 0.015600 0.086962
v 0.035000 0.015600 0.086962
v 0.095000 0.015600 0.086962
v 0.084250 0.059600 0.071653
v 0.035000 0.015600 0.086962
v 0.035000 0.015600 0.086962
v 0.084250 0.059600 0.071653
v 0.042883 0.059600 0.069997
v 0.065000 -0.142800 0.035000
v 0.043400 -0.123000 0.072412
v 0.021800 -0.123000 0.035000
v 0.042883 0.059600 0.069997
v 0.072200 0.125600 0.035000
v 0.023633 0.059600 0.033344
v 0.043400 -0.123000 0.072412
v 0.035000 0.015600 0.086962
v 0.021800 -0.123000 0.035000
v 0.021800 -0.123000 0.035000
v 0.035000 0.015600 0.086962
v 0.005000 0.015600 0.035000
v 0.035000 0.015600 0.086962
v 0.042883 0.059600 0.069997
v 0.005000 0.015600 0.035000
v 0.005000 0.015600 0.035000
v 0.042883 0.059600 0.069997
v 0.023633 0.059600 0.033344
v 0.065000 -0.142800 0.035000
v 0.021800 -0.123000 0.035000
v 0.043400 -0.123000 -0.002412
v 0.023633 0.059600 0.033344
v 0.072200 0.125600 0.035000
v 0.045750 0.059600 -0.001653
v 0.021800 -0.123000 0.035000
v 0.005000 0.015600 0.035000
v 0.043400 -0.123000 -0.002412
v 0.043400 -0.123000 -0.002412
v 0.005000 0.015600 0.035000
v 0.035000 0.015600 -0.016962
v 0.005000 0.015600 0.035000
v 0.023633 0.059600 0.033344
v 0.035000 0.015600 -0.016962
v 0.035000 0.015600 -0.016962
v 0.023633 0.059600 0.033344
v 0.045750 0.059600 -0.001653
v 0.065000 -0.142800 0.035000
v 0.043400 -0.123000 -0.002412
v 0.086600 -0.123000 -0.002412
v 0.045750 0.059600 -0.001653
v 0.072200 0.125600 0.035000
v 0.087117 0.059600 0.000003
v 0.043400 -0.123000 -0.002412
v 0.035000 0.015600 -0.016962
v 0.086600 -0.123000 -0.002412
v 0.086600 -0.123000 -0.002412
v 0.035000 0.015600 -0.016962
v 0.095000 0.015600 -0.016962
v 0.035000 0.015600 -0.016962
v 0.045750 0.059600 -0.001653
v 0.095000 0.015600 -0.016962
v 0.095000 0.015600 -0.016962
v 0.045750 0.059600 -0.001653
v 0.087117 0.059600 0.000003
v 0.065000 -0.142800 0.035000
v 0.086600 -0.123000 -0.002412
v 0.108200 -0.123000 0.035000
v 0.087117 0.059600 0.000003
v 0.072200 0.125600 0.035000
v 0.106367 0.059600 0.036656
v 0.086600 -0.123000 -0.002412
v 0.095000 0.015600 -0.016962
v 0.108200 -0.123000 0.035000
v 0.108200 -0.123000 0.035000
v 0.095000 0.015600 -0.016962
v 0.125000 0.015600 0.035000
v 0.095000 0.015600 -0.016962
v 0.087117 0.059600 0.000003
v 0.125000 0.015600 0.035000
v 0.125000 0.015600 0.035000
v 0.087117 0.059600 0.000003
v 0.106367 0.059600 0.036656
v 0.000000 -0.118500 -0.065000
v 0.036000 -0.105000 -0.065000
v 0.018000 -0.105000 -0.033823
v 0.034472 0.019500 -0.063620
v 0.006000 0.064500 -0.065000
v 0.016041 0.019500 -0.034456
v 0.036000 -0.105000 -0.065000
v 0.050000 -0.010500 -0.065000
v 0.018000 -0.105000 -0.033823
v 0.018000 -0.105000 -0.033823
v 0.050000 -0.010500 -0.065000
v 0.025000 -0.010500 -0.021699
v 0.050000 -0.010500 -0.065000
v 0.034472 0.019500 -0.063620
v 0.025000 -0.010500 -0.021699
v 0.025000 -0.010500 -0.021699
v 0.034472 0.019500 -0.063620
v 0.016041 0.019500 -0.034456
v 0.000000 -0.118500 -0.065000
v 0.018000 -0.105000 -0.033823
v -0.018000 -0.105000 -0.033823
v 0.016041 0.019500 -0.034456
v 0.006000 0.064500 -0.065000
v -0.018431 0.019500 -0.035836
v 0.018000 -0.105000 -0.033823
v 0.025000 -0.010500 -0.021699
v -0.018000 -0.105000 -0.033823
v -0.018000 -0.105000 -0.033823
v 0.025000 -0.010500 -0.021699
v -0.025000 -0.010500 -0.021699
v 0.025000 -0.010500 -0.021699
v 0.016041 0.019500 -0.034456
v -0.025000 -0.010500 -0.021699
v -0.025000 -0.010500 -0.021699
v 0.016041 0.019500 -0.034456
v -0.018431 0.019500 -0.035836
v 0.000000 -0.118500 -0.065000
v -0.018000 -0.105000 -0.033823
v -0.036000 -0.105000 -0.065000
v -0.018431 0.019500 -0.035836
v 0.006000 0.064500 -0.065000
v -0.034472 0.019500 -0.066380
v -0.018000 -0.105000 -0.033823
v -0.025000 -0.010500 -0.021699
v -0.036000 -0.105000 -0.065000
v -0.036000 -0.105000 -0.065000
v -0.025000 -0.010500 -0.021699
v -0.050000 -0.010500 -0.065000
v -0.025000 -0.010500 -0.021699
v -0.018431 0.019500 -0.035836
v -0.050000 -0.010500 -0.065000
v -0.050000 -0.010500 -0.065000
v -0.018431 0.019500 -0.035836
v -0.034472 0.019500 -0.066380
v 0.000000 -0.118500 -0.065000
v -0.036000 -0.105000 -0.065000
v -0.018000 -0.105000 -0.096177
v -0.034472 0.019500 -0.066380
v 0.006000 0.064500 -0.065000
v -0.016041 0.019500 -0.095544
v -0.036000 -0.105000 -0.065000
v -0.050000 -0.010500 -0.065000
v -0.018000 -0.105000 -0.096177
v -0.018000 -0.105000 -0.096177
v -0.050000 -0.010500 -0.065000
v -0.025000 -0.010500 -0.108301
v -0.050000 -0.010500 -0.065000
v -0.034472 0.019500 -0.066380
v -0.025000 -0.010500 -0.108301
v -0.025000 -0.010500 -0.108301
v -0.034472 0.019500 -0.066380
v -0.016041 0.019500 -0.095544
v 0.000000 -0.118500 -0.065000
v -0.018000 -0.105000 -0.096177
v 0.018000 -0.105000 -0.096177
v -0.016041 0.019500 -0.095544
v 0.006000 0.064500 -0.065000
v 0.018431 0.019500 -0.094164
v -0.018000 -0.105000 -0.096177
v -0.025000 -0.010500 -0.108301
v 0.018000 -0.105000 -0.096177
v 0.018000 -0.105000 -0.096177
v -0.025000 -0.010500 -0.108301
v 0.025000 -0.010500 -0.108301
v -0.025000 -0.010500 -0.108301
v -0.016041 0.019500 -0.095544
v 0.025000 -0.010500 -0.108301
v 0.025000 -0.010500 -0.108301
v -0.016041 0.019500 -0.095544
v 0.018431 0.019500 -0.094164
v 0.000000 -0.118500 -0.065000
v 0.018000 -0.105000 -0.096177
v 0.036000 -0.105000 -0.065000
v 0.018431 0.019500 -0.094164
v 0.006000 0.064500 -0.065000
v 0.034472 0.019500 -0.063620
v 0.018000 -0.105000 -0.096177
v 0.025000 -0.010500 -0.108301
v 0.036000 -0.105000 -0.065000
v 0.036000 -0.105000 -0.065000
v 0.025000 -0.010500 -0.108301
v 0.050000 -0.010500 -0.065000
v 0.025000 -0.010500 -0.108301
v 0.018431 0.019500 -0.094164
v 0.050000 -0.010500 -0.065000
v 0.050000 -0.010500 -0.065000
v 0.018431 0.019500 -0.094164
v 0.034472 0.019500 -0.063620
vt 0.007812 0.992188
vt 0.041016 0.992188
vt 0.023438 0.958984
vt 0.056641 0.992188
vt 0.089844 0.992188
vt 0.072266 0.958984
vt 0.105469 0.992188
vt 0.138672 0.992188
vt 0.121094 0.958984
vt 0.154297 0.992188
vt 0.187500 0.992188
vt 0.169922 0.958984
vt 0.203125 0.992188
vt 0.236328 0.992188
vt 0.218750 0.958984
vt 0.251953 0.992188
vt 0.285156 0.992188
vt 0.267578 0.958984
vt 0.300781 0.992188
vt 0.333984 0.992188
vt 0.316406 0.958984
vt 0.349609 0.992188
vt 0.382812 0.992188
vt 0.365234 0.958984
vt 0.398438 0.992188
vt 0.431641 0.992188
vt 0.414062 0.958984
vt 0.447266 0.992188
vt 0.480469 0.992188
vt 0.462891 0.958984
vt 0.496094 0.992188
vt 0.529297 0.992188
vt 0.511719 0.958984
vt 0.544922 0.992188
vt 0.578125 0.992188
vt 0.560547 0.958984
vt 0.593750 0.992188
vt 0.626953 0.992188
vt 0.609375 0.958984
vt 0.642578 0.992188
vt 0.675781 0.992188
vt 0.658203 0.958984
vt 0.691406 0.992188
vt 0.724609 0.992188
vt 0.707031 0.958984
vt 0.740234 0.992188
vt 0.773438 0.992188
vt 0.755859 0.958984
vt 0.789062 0.992188
vt 0.822266 0.992188
vt 0.804688 0.958984
vt 0.837891 0.992188
vt 0.871094 0.992188
vt 0.853516 0.958984
vt 0.886719 0.992188
vt 0.919922 0.992188
vt 0.902344 0.958984
vt 0.935547 0.992188
vt 0.968750 0.992188
vt 0.951172 0.958984
vt 0.007812 0.943359
vt 0.041016 0.943359
vt 0.023438 0.910156
vt 0.056641 0.943359
vt 0.089844 0.943359
vt 0.072266 0.910156
vt 0.105469 0.943359
vt 0.138672 0.943359
vt 0.121094 0.910156
vt 0.154297 0.943359
vt 0.187500 0.943359
vt 0.169922 0.910156
vt 0.203125 0.943359
vt 0.236328 0.943359
vt 0.218750 0.910156
vt 0.251953 0.943359
vt 0.285156 0.943359
vt 0.267578 0.910156
vt 0.300781 0.943359
vt 0.333984 0.943359
vt 0.316406 0.910156
vt 0.349609 0.943359
vt 0.382812 0.943359
vt 0.365234 0.910156
vt 0.398438 0.943359
vt 0.431641 0.943359
vt 0.414062 0.910156
vt 0.447266 0.943359
vt 0.480469 0.943359
vt 0.462891 0.910156
vt 0.496094 0.943359
vt 0.529297 0.943359
vt 0.511719 0.910156
vt 0.544922 0.943359
vt 0.578125 0.943359
vt 0.560547 0.910156
vt 0.593750 0.943359
vt 0.626953 0.943359
vt 0.609375 0.910156
vt 0.642578 0.943359
vt 0.675781 0.943359
vt 0.658203 0.910156
vt 0.691406 0.943359
vt 0.724609 0.943359
vt 0.707031 0.910156
vt 0.740234 0.943359
vt 0.773438 0.943359
vt 0.755859 0.910156
vt 0.789062 0.943359
vt 0.822266 0.943359
vt 0.804688 0.910156
vt 0.837891 0.943359
vt 0.871094 0.943359
vt 0.853516 0.910156
vt 0.886719 0.943359
vt 0.919922 0.943359
vt 0.902344 0.910156
vt 0.935547 0.943359
vt 0.968750 0.943359
vt 0.951172 0.910156
vt 0.007812 0.894531
vt 0.041016 0.894531
vt 0.023438 0.861328
vt 0.056641 0.894531
vt 0.089844 0.894531
vt 0.072266 0.861328
vt 0.105469 0.894531
vt 0.138672 0.894531
vt 0.121094 0.861328
vt 0.154297 0.894531
vt 0.187500 0.894531
vt 0.169922 0.861328
vt 0.203125 0.894531
vt 0.236328 0.894531
vt 0.218750 0.861328
vt 0.251953 0.894531
vt 0.285156 0.894531
vt 0.267578 0.861328
vt 0.300781 0.894531
vt 0.333984 0.894531
vt 0.316406 0.861328
vt 0.349609 0.894531
vt 0.382812 0.894531
vt 0.365234 0.861328
vt 0.398438 0.894531
vt 0.431641 0.894531
vt 0.414062 0.861328
vt 0.447266 0.894531
vt 0.480469 0.894531
vt 0.462891 0.861328
vt 0.496094 0.894531
vt 0.529297 0.894531
vt 0.511719 0.861328
vt 0.544922 0.894531
vt 0.578125 0.894531
vt 0.560547 0.861328
vt 0.593750 0.894531
vt 0.626953 0.894531
vt 0.609375 0.861328
vt 0.642578 0.894531
vt 0.675781 0.894531
vt 0.658203 0.861328
vt 0.691406 0.894531
vt 0.724609 0.894531
vt 0.707031 0.861328
vt 0.740234 0.894531
vt 0.773438 0.894531
vt 0.755859 0.861328
vt 0.789062 0.894531
vt 0.822266 0.894531
vt 0.804688 0.861328
vt 0.837891 0.894531
vt 0.871094 0.894531
vt 0.853516 0.861328
vt 0.886719 0.894531
vt 0.919922 0.894531
vt 0.902344 0.861328
vt 0.935547 0.894531
vt 0.968750 0.894531
vt 0.951172 0.861328
vt 0.007812 0.845703
vt 0.041016 0.845703
vt 0.023438 0.812500
vt 0.056641 0.845703
vt 0.089844 0.845703
vt 0.072266 0.812500
vt 0.105469 0.845703
vt 0.138672 0.845703
vt 0.121094 0.812500
vt 0.154297 0.845703
vt 0.187500 0.845703
vt 0.169922 0.812500
vt 0.203125 0.845703
vt 0.236328 0.845703
vt 0.218750 0.812500
vt 0.251953 0.845703
vt 0.285156 0.845703
vt 0.267578 0.812500
vt 0.300781 0.845703
vt 0.333984 0.845703
vt 0.316406 0.812500
vt 0.349609 0.845703
vt 0.382812 0.845703
vt 0.365234 0.812500
vt 0.398438 0.845703
vt 0.431641 0.845703
vt 0.414062 0.812500
vt 0.447266 0.845703
vt 0.480469 0.845703
vt 0.462891 0.812500
vt 0.496094 0.845703
vt 0.529297 0.845703
vt 0.511719 0.812500
vt 0.544922 0.845703
vt 0.578125 0.845703
vt 0.560547 0.812500
vt 0.593750 0.845703
vt 0.626953 0.845703
vt 0.609375 0.812500
vt 0.642578 0.845703
vt 0.675781 0.845703
vt 0.658203 0.812500
vt 0.691406 0.845703
vt 0.724609 0.845703
vt 0.707031 0.812500
vt 0.740234 0.845703
vt 0.773438 0.845703
vt 0.755859 0.812500
vt 0.789062 0.845703
vt 0.822266 0.845703
vt 0.804688 0.812500
vt 0.837891 0.845703
vt 0.871094 0.845703
vt 0.853516 0.812500
vt 0.886719 0.845703
vt 0.919922 0.845703
vt 0.902344 0.812500
vt 0.935547 0.845703
vt 0.968750 0.845703
vt 0.951172 0.812500
vt 0.007812 0.796875
vt 0.041016 0.796875
vt 0.023438 0.763672
vt 0.056641 0.796875
vt 0.089844 0.796875
vt 0.072266 0.763672
vt 0.105469 0.796875
vt 0.138672 0.796875
vt 0.121094 0.763672
vt 0.154297 0.796875
vt 0.187500 0.796875
vt 0.169922 0.763672
vt 0.203125 0.796875
vt 0.236328 0.796875
vt 0.218750 0.763672
vt 0.251953 0.796875
vt 0.285156 0.796875
vt 0.267578 0.763672
vt 0.300781 0.796875
vt 0.333984 0.796875
vt 0.316406 0.763672
vt 0.349609 0.796875
vt 0.382812 0.796875
vt 0.365234 0.763672
vt 0.398438 0.796875
vt 0.431641 0.796875
vt 0.414062 0.763672
vt 0.447266 0.796875
vt 0.480469 0.796875
vt 0.462891 0.763672
vt 0.496094 0.796875
vt 0.529297 0.796875
vt 0.511719 0.763672
vt 0.544922 0.796875
vt 0.578125 0.796875
vt 0.560547 0.763672
vt 0.593750 0.796875
vt 0.626953 0.796875
vt 0.609375 0.763672
vt 0.642578 0.796875
vt 0.675781 0.796875
vt 0.658203 0.763672
vt 0.691406 0.796875
vt 0.724609 0.796875
vt 0.707031 0.763672
vt 0.740234 0.796875
vt 0.773438 0.796875
vt 0.755859 0.763672
vt 0.789062 0.796875
vt 0.822266 0.796875
vt 0.804688 0.763672
vt 0.837891 0.796875
vt 0.871094 0.796875
vt 0.853516 0.763672
vt 0.886719 0.796875
vt 0.919922 0.796875
vt 0.902344 0.763672
vt 0.935547 0.796875
vt 0.968750 0.796875
vt 0.951172 0.763672
vt 0.007812 0.748047
vt 0.041016 0.748047
vt 0.023438 0.714844
vt 0.056641 0.748047
vt 0.089844 0.748047
vt 0.072266 0.714844
vt 0.105469 0.748047
vt 0.138672 0.748047
vt 0.121094 0.714844
vt 0.154297 0.748047
vt 0.187500 0.748047
vt 0.169922 0.714844
vt 0.203125 0.748047
vt 0.236328 0.748047
vt 0.218750 0.714844
vt 0.251953 0.748047
vt 0.285156 0.748047
vt 0.267578 0.714844
vt 0.300781 0.748047
vt 0.333984 0.748047
vt 0.316406 0.714844
vt 0.349609 0.748047
vt 0.382812 0.748047
vt 0.365234 0.714844
f 1/1 2/2 3/3
f 4/4 5/5 6/6
f 7/7 8/8 9/9
f 10/10 11/11 12/12
f 13/13 14/14 15/15
f 16/16 17/17 18/18
f 19/19 20/20 21/21
f 22/22 23/23 24/24
f 25/25 26/26 27/27
f 28/28 29/29 30/30
f 31/31 32/32 33/33
f 34/34 35/35 36/36
f 37/37 38/38 39/39
f 40/40 41/41 42/42
f 43/43 44/44 45/45
f 46/46 47/47 48/48
f 49/49 50/50 51/51
f 52/52 53/53 54/54
f 55/55 56/56 57/57
f 58/58 59/59 60/60
f 61/61 62/62 63/63
f 64/64 65/65 66/66
f 67/67 68/68 69/69
f 70/70 71/71 72/72
f 73/73 74/74 75/75
f 76/76 77/77 78/78
f 79/79 80/80 81/81
f 82/82 83/83 84/84
f 85/85 86/86 87/87
f 88/88 89/89 90/90
f 91/91 92/92 93/93
f 94/94 95/95 96/96
f 97/97 98/98 99/99
f 100/100 101/101 102/102
f 103/103 104/104 105/105
f 106/106 107/107 108/108
f 109/109 110/110 111/111
f 112/112 113/113 114/114
f 115/115 116/116 117/117
f 118/118 119/119 120/120
f 121/121 122/122 123/123
f 124/124 125/125 126/126
f 127/127 128/128 129/129
f 130/130 131/131 132/132
f 133/133 134/134 135/135
f 136/136 137/137 138/138
f 139/139 140/140 141/141
f 142/142 143/143 144/144
f 145/145 146/146 147/147
f 148/148 149/149 150/150
f 151/151 152/152 153/153
f 154/154 155/155 156/156
f 157/157 158/158 159/159
f 160/160 161/161 162/162
f 163/163 164/164 165/165
f 166/166 167/167 168/168
f 169/169 170/170 171/171
f 172/172 173/173 174/174
f 175/175 176/176 177/177
f 178/178 179/179 180/180
f 181/181 182/182 183/183
f 184/184 185/185 186/186
f 187/187 188/188 189/189
f 190/190 191/191 192/192
f 193/193 194/194 195/195
f 196/196 197/197 198/198
f 199/199 200/200 201/201
f 202/202 203/203 204/204
f 205/205 206/206 207/207
f 208/208 209/209 210/210
f 211/211 212/212 213/213
f 214/214 215/215 216/216
f 217/217 218/218 219/219
f 220/220 221/221 222/222
f 223/223 224/224 225/225
f 226/226 227/227 228/228
f 229/229 230/230 231/231
f 232/232 233/233 234/234
f 235/235 236/236 237/237
f 238/238 239/239 240/240
f 241/241 242/242 243/243
f 244/244 245/245 246/246
f 247/247 248/248 249/249
f 250/250 251/251 252/252
f 253/253 254/254 255/255
f 256/256 257/257 258/258
f 259/259 260/260 261/261
f 262/262 263/263 264/264
f 265/265 266/266 267/267
f 268/268 269/269 270/270
f 271/271 272/272 273/273
f 274/274 275/275 276/276
f 277/277 278/278 279/279
f 280/280 281/281 282/282
f 283/283 284/284 285/285
f 286/286 287/287 288/288
f 289/289 290/290 291/291
f 292/292 293/293 294/294
f 295/295 296/296 297/297
f 298/298 299/299 300/300
f 301/301 302/302 303/303
f 304/304 305/305 306/306
f 307/307 308/308 309/309
f 310/310 311/311 312/312
f 313/313 314/314 315/315
f 316/316 317/317 318/318
f 319/319 320/320 321/321
f 322/322 323/323 324/324
