# Original Magenheim Earth asset; meters; Y up
mtllib simple.mtl
usemtl simple
v 0.000000 -0.132300 0.000000
v 0.056880 -0.108000 0.000000
v 0.028440 -0.108000 0.049260
v 0.054466 0.116100 0.002180
v 0.009480 0.197100 0.000000
v 0.025345 0.116100 0.048259
v 0.056880 -0.108000 0.000000
v 0.079000 0.062100 0.000000
v 0.028440 -0.108000 0.049260
v 0.028440 -0.108000 0.049260
v 0.079000 0.062100 0.000000
v 0.039500 0.062100 0.068416
v 0.079000 0.062100 0.000000
v 0.054466 0.116100 0.002180
v 0.039500 0.062100 0.068416
v 0.039500 0.062100 0.068416
v 0.054466 0.116100 0.002180
v 0.025345 0.116100 0.048259
v 0.000000 -0.132300 0.000000
v 0.028440 -0.108000 0.049260
v -0.028440 -0.108000 0.049260
v 0.025345 0.116100 0.048259
v 0.009480 0.197100 0.000000
v -0.029121 0.116100 0.046079
v 0.028440 -0.108000 0.049260
v 0.039500 0.062100 0.068416
v -0.028440 -0.108000 0.049260
v -0.028440 -0.108000 0.049260
v 0.039500 0.062100 0.068416
v -0.039500 0.062100 0.068416
v 0.039500 0.062100 0.068416
v 0.025345 0.116100 0.048259
v -0.039500 0.062100 0.068416
v -0.039500 0.062100 0.068416
v 0.025345 0.116100 0.048259
v -0.029121 0.116100 0.046079
v 0.000000 -0.132300 0.000000
v -0.028440 -0.108000 0.049260
v -0.056880 -0.108000 0.000000
v -0.029121 0.116100 0.046079
v 0.009480 0.197100 0.000000
v -0.054466 0.116100 -0.002180
v -0.028440 -0.108000 0.049260
v -0.039500 0.062100 0.068416
v -0.056880 -0.108000 0.000000
v -0.056880 -0.108000 0.000000
v -0.039500 0.062100 0.068416
v -0.079000 0.062100 0.000000
v -0.039500 0.062100 0.068416
v -0.029121 0.116100 0.046079
v -0.079000 0.062100 0.000000
v -0.079000 0.062100 0.000000
v -0.029121 0.116100 0.046079
v -0.054466 0.116100 -0.002180
v 0.000000 -0.132300 0.000000
v -0.056880 -0.108000 0.000000
v -0.028440 -0.108000 -0.049260
v -0.054466 0.116100 -0.002180
v 0.009480 0.197100 0.000000
v -0.025345 0.116100 -0.048259
v -0.056880 -0.108000 0.000000
v -0.079000 0.062100 0.000000
v -0.028440 -0.108000 -0.049260
v -0.028440 -0.108000 -0.049260
v -0.079000 0.062100 0.000000
v -0.039500 0.062100 -0.068416
v -0.079000 0.062100 0.000000
v -0.054466 0.116100 -0.002180
v -0.039500 0.062100 -0.068416
v -0.039500 0.062100 -0.068416
v -0.054466 0.116100 -0.002180
v -0.025345 0.116100 -0.048259
v 0.000000 -0.132300 0.000000
v -0.028440 -0.108000 -0.049260
v 0.028440 -0.108000 -0.049260
v -0.025345 0.116100 -0.048259
v 0.009480 0.197100 0.000000
v 0.029121 0.116100 -0.046079
v -0.028440 -0.108000 -0.049260
v -0.039500 0.062100 -0.068416
v 0.028440 -0.108000 -0.049260
v 0.028440 -0.108000 -0.049260
v -0.039500 0.062100 -0.068416
v 0.039500 0.062100 -0.068416
v -0.039500 0.062100 -0.068416
v -0.025345 0.116100 -0.048259
v 0.039500 0.062100 -0.068416
v 0.039500 0.062100 -0.068416
v -0.025345 0.116100 -0.048259
v 0.029121 0.116100 -0.046079
v 0.000000 -0.132300 0.000000
v 0.028440 -0.108000 -0.049260
v 0.056880 -0.108000 0.000000
v 0.029121 0.116100 -0.046079
v 0.009480 0.197100 0.000000
v 0.054466 0.116100 0.002180
v 0.028440 -0.108000 -0.049260
v 0.039500 0.062100 -0.068416
v 0.056880 -0.108000 0.000000
v 0.056880 -0.108000 0.000000
v 0.039500 0.062100 -0.068416
v 0.079000 0.062100 0.000000
v 0.039500 0.062100 -0.068416
v 0.029121 0.116100 -0.046079
v 0.079000 0.062100 0.000000
v 0.079000 0.062100 0.000000
v 0.029121 0.116100 -0.046079
v 0.054466 0.116100 0.002180
vt 0.007812 0.992188
vt 0.041016 0.992188
vt 0.023438 0.958984
vt 0.056641 0.992188
vt 0.089844 0.992188
vt 0.072266 0.958984
vt 0.105469 0.992188
vt 0.138672 0.992188
vt 0.121094 0.958984
vt 0.154297 0.992188
vt 0.187500 0.992188
vt 0.169922 0.958984
vt 0.203125 0.992188
vt 0.236328 0.992188
vt 0.218750 0.958984
vt 0.251953 0.992188
vt 0.285156 0.992188
vt 0.267578 0.958984
vt 0.300781 0.992188
vt 0.333984 0.992188
vt 0.316406 0.958984
vt 0.349609 0.992188
vt 0.382812 0.992188
vt 0.365234 0.958984
vt 0.398438 0.992188
vt 0.431641 0.992188
vt 0.414062 0.958984
vt 0.447266 0.992188
vt 0.480469 0.992188
vt 0.462891 0.958984
vt 0.496094 0.992188
vt 0.529297 0.992188
vt 0.511719 0.958984
vt 0.544922 0.992188
vt 0.578125 0.992188
vt 0.560547 0.958984
vt 0.593750 0.992188
vt 0.626953 0.992188
vt 0.609375 0.958984
vt 0.642578 0.992188
vt 0.675781 0.992188
vt 0.658203 0.958984
vt 0.691406 0.992188
vt 0.724609 0.992188
vt 0.707031 0.958984
vt 0.740234 0.992188
vt 0.773438 0.992188
vt 0.755859 0.958984
vt 0.789062 0.992188
vt 0.822266 0.992188
vt 0.804688 0.958984
vt 0.837891 0.992188
vt 0.871094 0.992188
vt 0.853516 0.958984
vt 0.886719 0.992188
vt 0.919922 0.992188
vt 0.902344 0.958984
vt 0.935547 0.992188
vt 0.968750 0.992188
vt 0.951172 0.958984
vt 0.007812 0.943359
vt 0.041016 0.943359
vt 0.023438 0.910156
vt 0.056641 0.943359
vt 0.089844 0.943359
vt 0.072266 0.910156
vt 0.105469 0.943359
vt 0.138672 0.943359
vt 0.121094 0.910156
vt 0.154297 0.943359
vt 0.187500 0.943359
vt 0.169922 0.910156
vt 0.203125 0.943359
vt 0.236328 0.943359
vt 0.218750 0.910156
vt 0.251953 0.943359
vt 0.285156 0.943359
vt 0.267578 0.910156
vt 0.300781 0.943359
vt 0.333984 0.943359
vt 0.316406 0.910156
vt 0.349609 0.943359
vt 0.382812 0.943359
vt 0.365234 0.910156
vt 0.398438 0.943359
vt 0.431641 0.943359
vt 0.414062 0.910156
vt 0.447266 0.943359
vt 0.480469 0.943359
vt 0.462891 0.910156
vt 0.496094 0.943359
vt 0.529297 0.943359
vt 0.511719 0.910156
vt 0.544922 0.943359
vt 0.578125 0.943359
vt 0.560547 0.910156
vt 0.593750 0.943359
vt 0.626953 0.943359
vt 0.609375 0.910156
vt 0.642578 0.943359
vt 0.675781 0.943359
vt 0.658203 0.910156
vt 0.691406 0.943359
vt 0.724609 0.943359
vt 0.707031 0.910156
vt 0.740234 0.943359
vt 0.773438 0.943359
vt 0.755859 0.910156
f 1/1 2/2 3/3
f 4/4 5/5 6/6
f 7/7 8/8 9/9
f 10/10 11/11 12/12
f 13/13 14/14 15/15
f 16/16 17/17 18/18
f 19/19 20/20 21/21
f 22/22 23/23 24/24
f 25/25 26/26 27/27
f 28/28 29/29 30/30
f 31/31 32/32 33/33
f 34/34 35/35 36/36
f 37/37 38/38 39/39
f 40/40 41/41 42/42
f 43/43 44/44 45/45
f 46/46 47/47 48/48
f 49/49 50/50 51/51
f 52/52 53/53 54/54
f 55/55 56/56 57/57
f 58/58 59/59 60/60
f 61/61 62/62 63/63
f 64/64 65/65 66/66
f 67/67 68/68 69/69
f 70/70 71/71 72/72
f 73/73 74/74 75/75
f 76/76 77/77 78/78
f 79/79 80/80 81/81
f 82/82 83/83 84/84
f 85/85 86/86 87/87
f 88/88 89/89 90/90
f 91/91 92/92 93/93
f 94/94 95/95 96/96
f 97/97 98/98 99/99
f 100/100 101/101 102/102
f 103/103 104/104 105/105
f 106/106 107/107 108/108
